<svg xmlns="http://www.w3.org/2000/svg" width="138.14" height="103.3" viewBox="0 0 138.14 103.3">
  <g id="First_place_medal-60b6" data-name="First place medal-60b6" transform="translate(-60.93 -38.35)">
    <path id="Path_215" data-name="Path 215" d="M199.07,105.33H167.01V86.3h32.06l-7.72,9.51Z" fill="#e2eaf2"/>
    <path id="Path_216" data-name="Path 216" d="M60.93,105.33H92.99V86.3H60.93l7.72,9.51Z" fill="#e2eaf2"/>
    <rect id="Rectangle_81" data-name="Rectangle 81" width="101.17" height="19.03" transform="translate(79.25 79.67)" fill="#e2eaf2"/>
    <path id="Path_217" data-name="Path 217" d="M180.42,98.7l-13.41,6.63V98.7Z" fill="#6e00c1"/>
    <path id="Path_218" data-name="Path 218" d="M79.58,98.7l13.41,6.63V98.7Z" fill="#6e00c1"/>
    <path id="Path_219" data-name="Path 219" d="M152.75,98.45h0a2.6,2.6,0,0,0-1.48,3.57h0a7.65,7.65,0,0,1-1.5,8.67l-.17.17a7.63,7.63,0,0,1-8.68,1.5h0a2.6,2.6,0,0,0-3.57,1.48l-.1.28a7.63,7.63,0,0,1-7.16,5.08h-.14a7.63,7.63,0,0,1-7.16-5.08l-.1-.28a2.6,2.6,0,0,0-3.57-1.48h0a7.63,7.63,0,0,1-8.68-1.5l-.18-.18a7.64,7.64,0,0,1-1.49-8.68h0a2.62,2.62,0,0,0-1.48-3.58h0a7.63,7.63,0,0,1-5.07-7.19V91a7.65,7.65,0,0,1,5.08-7.2h0a2.62,2.62,0,0,0,1.48-3.58h0a7.64,7.64,0,0,1,1.49-8.68l.18-.18a7.63,7.63,0,0,1,8.68-1.5h0a2.6,2.6,0,0,0,3.57-1.48l.1-.28a7.61,7.61,0,0,1,7.13-5.1h.14a7.61,7.61,0,0,1,7.16,5.07l.1.28a2.6,2.6,0,0,0,3.57,1.48h0a7.63,7.63,0,0,1,8.68,1.5l.17.18a7.62,7.62,0,0,1,1.5,8.68h0a2.6,2.6,0,0,0,1.48,3.58h0a7.65,7.65,0,0,1,5.1,7.23v.24a7.64,7.64,0,0,1-5.08,7.21Z" fill="#6e00c1"/>
    <circle id="Ellipse_82" data-name="Ellipse 82" cx="16.87" cy="16.87" r="16.87" transform="translate(113.13 73.52)" fill="#fafafa"/>
    <circle id="Ellipse_83" data-name="Ellipse 83" cx="12.83" cy="12.83" r="12.83" transform="translate(117.17 77.56)" fill="#6e00c1"/>
    <path id="Path_220" data-name="Path 220" d="M130.87,108.99l2.61,32.66,7.62-10.89,10.67,1.96L141.32,105.5Z" fill="#6e00c1"/>
    <path id="Path_221" data-name="Path 221" d="M128.69,108.99l-2.61,32.66-7.62-10.89-10.67,1.96,10.46-27.22Z" fill="#6e00c1"/>
    <path id="Path_222" data-name="Path 222" d="M126.25,94.39h2.8V87h-2.4V85.15A8.72,8.72,0,0,0,129.82,84H132V94.4h2.39v2.39h-8.15Z" fill="#fafafa"/>
    <path id="Path_223" data-name="Path 223" d="M130.46,38.35l3.01,6.1,6.72.97-4.87,4.74,1.15,6.7-6.01-3.16-6.01,3.16,1.14-6.7-4.86-4.74,6.72-.97Z" fill="#6e00c1"/>
    <path id="Path_224" data-name="Path 224" d="M152.4,48.4l2.22,4.5,4.97.72L156,57.13l.84,4.94-4.44-2.33-4.44,2.33.85-4.94-3.59-3.51,4.96-.72Z" fill="#6e00c1"/>
    <path id="Path_225" data-name="Path 225" d="M107.6,48.4l2.22,4.5,4.96.72-3.59,3.51.85,4.94-4.44-2.33-4.44,2.33.84-4.94-3.59-3.51,4.97-.72Z" fill="#6e00c1"/>
  </g>
</svg>
