<svg xmlns="http://www.w3.org/2000/svg" width="135.44" height="113.864" viewBox="0 0 135.44 113.864">
  <g id="Books-60b6" transform="translate(-62.28 -33.046)">
    <path id="Path_184" data-name="Path 184" d="M178.11,54a24.16,24.16,0,0,0-42.63-12.11,35.16,35.16,0,0,0-46,52.49v.32A14,14,0,0,0,112,105.93a13,13,0,0,0,1.25-1.09c.44.44.91.86,1.39,1.26h0a22.2,22.2,0,0,0,29.87-1.48h0A30.59,30.59,0,1,0,178.11,54Z" fill="#0d1019"/>
    <circle id="Ellipse_57" data-name="Ellipse 57" cx="7.01" cy="7.01" r="7.01" transform="translate(141.43 75.16)" fill="#6e00c1"/>
    <path id="Path_185" data-name="Path 185" d="M140.31,84.69a18.65,18.65,0,0,0-2.53,4.53,1.56,1.56,0,0,0-.06.91c.06.11.13.1.42.13a6.16,6.16,0,0,0,2.18-.53,29.682,29.682,0,0,0,4.53-2.37c1.47-.9,2.92-1.87,4.31-2.92s2.78-2.09,4.1-3.22A43.649,43.649,0,0,0,157,77.67a16.85,16.85,0,0,0,1.57-2,5.38,5.38,0,0,0,.53-1,1,1,0,0,0,0-.67c0-.14-.4-.29-.78-.31a6.7,6.7,0,0,0-1.25.06,20.719,20.719,0,0,0-2.59.56A13.749,13.749,0,0,1,157,73.12a5.68,5.68,0,0,1,1.39-.36,2.13,2.13,0,0,1,1.7.43,2.1,2.1,0,0,1,.45,1.86A6,6,0,0,1,160,76.5a15,15,0,0,1-1.49,2.41,38.91,38.91,0,0,1-7.89,7.55,33.53,33.53,0,0,1-9.71,5.12,7,7,0,0,1-3.05.29,1.58,1.58,0,0,1-.46-.14,1.73,1.73,0,0,1-.47-.27,1.57,1.57,0,0,1-.61-1,2.72,2.72,0,0,1,.3-1.7,13.55,13.55,0,0,1,3.69-4.07Z" fill="#eaa88e"/>
    <circle id="Ellipse_58" data-name="Ellipse 58" cx="4.11" cy="4.11" r="4.11" transform="translate(100.86 50.1)" fill="#6e00c1"/>
    <circle id="Ellipse_59" data-name="Ellipse 59" cx="2.05" cy="2.05" r="2.05" transform="translate(109.49 44.76)" fill="#e2eaf2"/>
    <circle id="Ellipse_60" data-name="Ellipse 60" cx="2.05" cy="2.05" r="2.05" transform="translate(90.8 80.29)" fill="#e2eaf2"/>
    <circle id="Ellipse_61" data-name="Ellipse 61" cx="2.05" cy="2.05" r="2.05" transform="translate(111.55 98.81)" fill="#e2eaf2"/>
    <circle id="Ellipse_62" data-name="Ellipse 62" cx="0.75" cy="0.75" r="0.75" transform="translate(111.54 74.23)" fill="#e2eaf2"/>
    <circle id="Ellipse_63" data-name="Ellipse 63" cx="0.75" cy="0.75" r="0.75" transform="translate(86.18 73.49)" fill="#e2eaf2"/>
    <circle id="Ellipse_64" data-name="Ellipse 64" cx="1.5" cy="1.5" r="1.5" transform="translate(147.62 54.21)" fill="#e2eaf2"/>
    <circle id="Ellipse_65" data-name="Ellipse 65" cx="0.75" cy="0.75" r="0.75" transform="translate(169.96 91.19)" fill="#e2eaf2"/>
    <circle id="Ellipse_66" data-name="Ellipse 66" cx="1.5" cy="1.5" r="1.5" transform="translate(177.86 94.69)" fill="#e2eaf2"/>
    <path id="Path_186" data-name="Path 186" d="M179.36,78.44l.75,2.1,2.01-.96-.95,2.02,2.09.74-2.09.75.95,2.01-2.01-.95-.75,2.1-.74-2.1-2.02.95.96-2.01-2.1-.75,2.1-.74-.96-2.02,2.02.96Z" fill="#6e00c1"/>
    <path id="Path_187" data-name="Path 187" d="M132.28,69.9h0a.44.44,0,0,1-.28.41,3.38,3.38,0,0,0-2,2,.44.44,0,0,1-.41.28h0a.44.44,0,0,1-.41-.28,3.39,3.39,0,0,0-2-2,.45.45,0,0,1-.29-.41h0a.45.45,0,0,1,.29-.41,3.4,3.4,0,0,0,2-1.95.45.45,0,0,1,.41-.29h0a.45.45,0,0,1,.41.29,3.39,3.39,0,0,0,2,1.95.44.44,0,0,1,.28.41Z" fill="#e2eaf2"/>
    <circle id="Ellipse_67" data-name="Ellipse 67" cx="3.79" cy="3.79" r="3.79" transform="translate(159.47 54.66)" fill="#e2eaf2"/>
    <path id="Path_188" data-name="Path 188" d="M197.72,146.91H67.05a4.76,4.76,0,0,1-4.77-4.76V130.48a4.76,4.76,0,0,1,4.77-4.76H197.72v2.78h-6.67v15.58h6.67Z" fill="#6e00c1"/>
    <path id="Path_189" data-name="Path 189" d="M141.68,127.56h49.39v17.51H141.68a3.84,3.84,0,0,1-3.84-3.84V131.4a3.84,3.84,0,0,1,3.84-3.84Z" fill="#e2eaf2"/>
    <path id="Path_190" data-name="Path 190" d="M81.36,146.91H74.89a4.76,4.76,0,0,1-4.76-4.76V130.48a4.76,4.76,0,0,1,4.76-4.76h6.47a4.76,4.76,0,0,0-4.76,4.76v11.67a4.76,4.76,0,0,0,4.76,4.76Z" fill="#0a0d16"/>
    <path id="Path_191" data-name="Path 191" d="M128.77,146.91H122.3a4.76,4.76,0,0,1-4.76-4.76V130.48a4.76,4.76,0,0,1,4.76-4.76h6.47a4.76,4.76,0,0,0-4.76,4.76v11.67a4.76,4.76,0,0,0,4.76,4.76Z" fill="#0a0d16"/>
    <path id="Path_192" data-name="Path 192" d="M191.05,125.72H88.46a12.41,12.41,0,0,1-12.41-12.41h0A12.41,12.41,0,0,1,88.46,100.9H191.05v3.26h-7.76v18.25h7.76Z" fill="#6e00c1"/>
    <path id="Path_193" data-name="Path 193" d="M108.46,125.72H99.34a12.41,12.41,0,0,1,0-24.82h9.12a12.41,12.41,0,0,0,0,24.82Z" fill="#0a0d16"/>
    <path id="Path_194" data-name="Path 194" d="M131.19,103.06h52.08v20.51H131.19a10.26,10.26,0,0,1-10.26-10.26h0a10.26,10.26,0,0,1,10.26-10.26Z" fill="#e2eaf2"/>
    <path id="Path_195" data-name="Path 195" d="M93.74,114.53h0a.25.25,0,0,0-.14.33h0a.71.71,0,0,1-.14.79h0a.69.69,0,0,1-.78.14h0a.24.24,0,0,0-.33.13h0a.7.7,0,0,1-.65.46h0A.7.7,0,0,1,91,116h0a.23.23,0,0,0-.32-.13h0a.7.7,0,0,1-.79-.14h0a.67.67,0,0,1-.13-.78h0a.25.25,0,0,0-.14-.33h0a.69.69,0,0,1-.46-.65h0a.69.69,0,0,1,.46-.66h0a.24.24,0,0,0,.14-.32h0a.68.68,0,0,1,.13-.79h0a.7.7,0,0,1,.79-.13h0a.23.23,0,0,0,.32-.14h0a.69.69,0,0,1,.65-.46h0a.69.69,0,0,1,.65.46h0a.24.24,0,0,0,.33.14h0a.68.68,0,0,1,.78.13h0a.7.7,0,0,1,.14.79h0a.23.23,0,0,0,.13.32h0a.69.69,0,0,1,.46.66h0a.69.69,0,0,1-.4.56Z" fill="#6e00c1"/>
    <path id="Path_196" data-name="Path 196" d="M141.43,120.31l-3.94-3.81-3.94,3.81V107.52h7.88Z" fill="#6e00c1"/>
  </g>
</svg>
