<svg xmlns="http://www.w3.org/2000/svg" width="107.32" height="107.22" viewBox="0 0 107.32 107.22">
  <g id="Vases-60b6" transform="translate(-76.34 -36.39)">
    <path id="Path_256" data-name="Path 256" d="M128.82,138.3l-1-.06c2-33.85,2.08-55.15,2.08-55.36h1C130.9,83.09,130.84,104.41,128.82,138.3Z" fill="#0d1019"/>
    <path id="Path_257" data-name="Path 257" d="M125.56,78.05a4,4,0,0,0,.88,2.67l8.15.3a4.1,4.1,0,0,0,.94-3.82.449.449,0,0,0,0-.11,8.15,8.15,0,0,0-.82-2.09c-.41-.78-.92-1.61-1.43-2.39l-.15-.23c-1.11-1.67-2.16-3-2.16-3s-1.17,1.3-2.38,2.89l-.2.27h0c-.56.72-1.1,1.5-1.57,2.24a8.57,8.57,0,0,0-1,2,.7.7,0,0,0,0,.14,3.92,3.92,0,0,0-.26,1.13Z" fill="#6e00c1"/>
    <path id="Path_258" data-name="Path 258" d="M127.58,78.13a4,4,0,0,0,.87,2.66l8.51.31a3.53,3.53,0,0,0,.36-.94,6.34,6.34,0,0,0,.26-1.82q0-.24,0-.51a26.461,26.461,0,0,0-.14-2.79c-.19-2.11-.51-4-.51-4s-1.62.61-3.45,1.44l-.24.11c-.88.41-1.77.86-2.55,1.31a7.44,7.44,0,0,0-1.77,1.33h-.06a4,4,0,0,0-1.29,2.83Z" fill="#6e00c1"/>
    <path id="Path_259" data-name="Path 259" d="M129.32,79.18a4.16,4.16,0,0,0,.29,1.66l7.35.26a3.53,3.53,0,0,0,.36-.94,6.341,6.341,0,0,0,.26-1.82v-.51a26.465,26.465,0,0,0-.14-2.79h-2.77a7.81,7.81,0,0,0-2.3.37h-.06a4.19,4.19,0,0,0-1.71.94,4.06,4.06,0,0,0-1.08,1.74,3.529,3.529,0,0,0-.2,1.09Z" fill="#6e00c1"/>
    <path id="Path_260" data-name="Path 260" d="M130.37,80.86l6.59.24a3.53,3.53,0,0,0,.36-.94,6.34,6.34,0,0,0,.26-1.82q0-.24,0-.51a8.55,8.55,0,0,0-2.09-.74.76.76,0,0,0-.16,0,3.2,3.2,0,0,0-.75-.09,3.72,3.72,0,0,0-1.21.14,4,4,0,0,0-1.79,1,4.07,4.07,0,0,0-1.11,1.9A4.851,4.851,0,0,0,130.37,80.86Z" fill="#6e00c1"/>
    <path id="Path_261" data-name="Path 261" d="M123.52,77.83a6.27,6.27,0,0,0,.13,1.83,3.77,3.77,0,0,0,.29,1l8.51.31a4.05,4.05,0,0,0,1.07-2.59,4.72,4.72,0,0,0-.14-1.24,4,4,0,0,0-.95-1.68.062.062,0,0,0-.05-.06,7.51,7.51,0,0,0-1.68-1.45,24.271,24.271,0,0,0-2.34-1.43h0L128,72.3c-1.76-1-3.34-1.68-3.34-1.68s-.46,1.84-.8,3.93c-.15.91-.28,1.88-.34,2.77A4.339,4.339,0,0,1,123.52,77.83Z" fill="#6e00c1"/>
    <path id="Path_262" data-name="Path 262" d="M123.52,77.83a6.27,6.27,0,0,0,.13,1.83,3.77,3.77,0,0,0,.29,1l7.36.27a4,4,0,0,0,.42-1.64,3.93,3.93,0,0,0-.13-1.13,4.06,4.06,0,0,0-2.59-2.9h0a7.349,7.349,0,0,0-2.15-.52c-.7-.09-1.47-.15-2.24-.18h-.65c-.15.91-.28,1.88-.34,2.77A1.119,1.119,0,0,0,123.52,77.83Z" fill="#6e00c1"/>
    <path id="Path_263" data-name="Path 263" d="M123.55,77.32v.51a6.27,6.27,0,0,0,.13,1.83,3.77,3.77,0,0,0,.29,1l6.6.24a3.33,3.33,0,0,0-.06-.84,4,4,0,0,0-2.67-3.12,3.75,3.75,0,0,0-1.19-.23,3.4,3.4,0,0,0-.78,0h0a7.75,7.75,0,0,0-2.32.61Z" fill="#6e00c1"/>
    <path id="Path_264" data-name="Path 264" d="M128.46,80.09c-.07,2.08,1.93,3.84,1.93,3.84s2.12-1.61,2.19-3.69-1.92-3.84-1.92-3.84S128.54,78,128.46,80.09Z" fill="#0d1019"/>
    <path id="Path_265" data-name="Path 265" d="M126.09,84c1.84,1,4.3,0,4.3,0s-.51-2.61-2.35-3.6-4.29,0-4.29,0S124.26,83,126.09,84Z" fill="#0d1019"/>
    <path id="Path_266" data-name="Path 266" d="M134.67,84.28c-1.9.84-4.28-.35-4.28-.35s.7-2.57,2.59-3.42,4.28.35,4.28.35S136.56,83.43,134.67,84.28Z" fill="#0d1019"/>
    <path id="Path_267" data-name="Path 267" d="M130,98.72a.48.48,0,0,1-.45-.28,13.72,13.72,0,0,0-8.31-6.56.51.51,0,0,1-.36-.61.5.5,0,0,1,.61-.36,14.48,14.48,0,0,1,9,7.09.51.51,0,0,1-.23.67.59.59,0,0,1-.26.05Z" fill="#0d1019"/>
    <path id="Path_268" data-name="Path 268" d="M115.05,90.62s3-2.85,6.22-1.09.58,3.92-1.85,3.19A17,17,0,0,1,115.05,90.62Z" fill="#0d1019"/>
    <path id="Path_269" data-name="Path 269" d="M118.3,96.66s1.26-3.41,4.53-3.25,2,2.89-.25,3.25A14.92,14.92,0,0,1,118.3,96.66Z" fill="#0d1019"/>
    <path id="Path_270" data-name="Path 270" d="M121.3,86s3.61-.39,4.92,2.6-1.71,3-3,1.23A15,15,0,0,1,121.3,86Z" fill="#0d1019"/>
    <path id="Path_271" data-name="Path 271" d="M122.76,95.61a.51.51,0,0,1-.46-.31.5.5,0,0,1,.27-.65l3.13-1.29a8.36,8.36,0,0,0-.87-3.8.5.5,0,0,1,.27-.66.49.49,0,0,1,.65.27c1.3,3,.91,4.61.89,4.67a.5.5,0,0,1-.29.34L123,95.57a.48.48,0,0,1-.24.04Zm3.4-1.9Z" fill="#0d1019"/>
    <circle id="Ellipse_94" data-name="Ellipse 94" cx="21.64" cy="21.64" r="21.64" transform="translate(76.6 47.69)" fill="#e2eaf2"/>
    <circle id="Ellipse_95" data-name="Ellipse 95" cx="8.98" cy="8.98" r="8.98" transform="translate(145.16 60.35)" fill="#e2eaf2"/>
    <circle id="Ellipse_96" data-name="Ellipse 96" cx="9.18" cy="9.18" r="9.18" transform="translate(120.59 36.39)" fill="#e2eaf2"/>
    <path id="Path_272" data-name="Path 272" d="M144.16,123.87c-7.13-6-10.88-3.17-8.53-9.38s3.5-9.36,3.5-9.36H122s1.15,3.15,3.5,9.36-1.4,3.35-8.53,9.38,6.13,18.74,6.13,18.74h15S151.29,129.9,144.16,123.87Z" fill="#6e00c1"/>
    <path id="Path_273" data-name="Path 273" d="M159.45,138.28h-1c.81-33.84,2.07-55.19,2.08-55.4l1,.06C161.51,83.12,160.26,104.45,159.45,138.28Z" fill="#0d1019"/>
    <path id="Path_274" data-name="Path 274" d="M156.19,78.05a4,4,0,0,0,.88,2.67l8.15.3a4.07,4.07,0,0,0,.93-3.82v-.11A8.23,8.23,0,0,0,165.3,75a27.254,27.254,0,0,0-1.42-2.39l-.15-.23c-1.11-1.67-2.16-3-2.16-3s-1.17,1.3-2.38,2.89l-.2.27h0c-.56.72-1.1,1.5-1.57,2.24a8.571,8.571,0,0,0-1,2,.7.7,0,0,0,0,.14A3.92,3.92,0,0,0,156.19,78.05Z" fill="#6e00c1"/>
    <path id="Path_275" data-name="Path 275" d="M158.2,78.13a4.06,4.06,0,0,0,.88,2.66l8.51.31a3.53,3.53,0,0,0,.36-.94,6.341,6.341,0,0,0,.26-1.82v-.51c0-.89-.05-1.87-.14-2.79-.19-2.11-.51-4-.51-4s-1.62.61-3.45,1.44l-.24.11c-.88.41-1.78.86-2.55,1.31a7.441,7.441,0,0,0-1.77,1.33h-.06a4.07,4.07,0,0,0-1.07,1.61,4.62,4.62,0,0,0-.22,1.29Z" fill="#6e00c1"/>
    <path id="Path_276" data-name="Path 276" d="M160,79.18a4,4,0,0,0,.29,1.66l7.35.26a3.53,3.53,0,0,0,.36-.94,6.341,6.341,0,0,0,.26-1.82v-.51c0-.89-.05-1.87-.14-2.79h-2.77a7.81,7.81,0,0,0-2.3.37H163a4.19,4.19,0,0,0-1.71.94,4.06,4.06,0,0,0-1.08,1.74A3.53,3.53,0,0,0,160,79.18Z" fill="#6e00c1"/>
    <path id="Path_277" data-name="Path 277" d="M161,80.86l6.59.24a3.53,3.53,0,0,0,.36-.94,6.341,6.341,0,0,0,.26-1.82v-.51a8.55,8.55,0,0,0-2.09-.74.76.76,0,0,0-.16,0,3.2,3.2,0,0,0-.75-.09,3.72,3.72,0,0,0-1.21.14,4,4,0,0,0-1.79,1,4.07,4.07,0,0,0-1.11,1.9,4.851,4.851,0,0,0-.1.82Z" fill="#6e00c1"/>
    <path id="Path_278" data-name="Path 278" d="M154.15,77.83a6.27,6.27,0,0,0,.13,1.83,3.77,3.77,0,0,0,.29,1l8.51.31a4.05,4.05,0,0,0,1.07-2.59,4.721,4.721,0,0,0-.14-1.24,4,4,0,0,0-.95-1.68.062.062,0,0,0-.05-.06,7.75,7.75,0,0,0-1.68-1.45A24.27,24.27,0,0,0,159,72.49h0l-.32-.19c-1.76-1-3.34-1.68-3.34-1.68s-.46,1.84-.8,3.93c-.15.91-.28,1.88-.34,2.77a4.489,4.489,0,0,0-.05.51Z" fill="#6e00c1"/>
    <path id="Path_279" data-name="Path 279" d="M154.15,77.83a6.27,6.27,0,0,0,.13,1.83,3.77,3.77,0,0,0,.29,1l7.36.27a4,4,0,0,0,.42-1.64,3.931,3.931,0,0,0-.13-1.13,3.88,3.88,0,0,0-1-1.81,4,4,0,0,0-1.63-1.06h-.05a7.35,7.35,0,0,0-2.15-.52c-.7-.09-1.47-.15-2.24-.18h-.65c-.15.91-.28,1.88-.34,2.77a4.489,4.489,0,0,0-.01.47Z" fill="#6e00c1"/>
    <path id="Path_280" data-name="Path 280" d="M154.18,77.32a4.492,4.492,0,0,0,0,.51,6.27,6.27,0,0,0,.13,1.83,3.77,3.77,0,0,0,.29,1l6.6.24a3.33,3.33,0,0,0-.06-.84,4.191,4.191,0,0,0-2.73-3.15,3.64,3.64,0,0,0-1.18-.23,3.4,3.4,0,0,0-.78,0h0a7.75,7.75,0,0,0-2.27.64Z" fill="#6e00c1"/>
    <path id="Path_281" data-name="Path 281" d="M159.09,80.09C159,82.17,161,83.93,161,83.93s2.12-1.61,2.19-3.69-1.92-3.84-1.92-3.84S159.17,78,159.09,80.09Z" fill="#0d1019"/>
    <path id="Path_282" data-name="Path 282" d="M156.72,84c1.84,1,4.3,0,4.3,0s-.51-2.61-2.35-3.6-4.29,0-4.29,0S154.89,83,156.72,84Z" fill="#0d1019"/>
    <path id="Path_283" data-name="Path 283" d="M165.3,84.28c-1.9.84-4.28-.35-4.28-.35s.7-2.57,2.59-3.42,4.28.35,4.28.35S167.19,83.43,165.3,84.28Z" fill="#0d1019"/>
    <path id="Path_284" data-name="Path 284" d="M107.63,123.49c-4.13-12.81-7.54-18.71-7.54-18.71H94.32s-3.42,5.9-7.55,18.71a16.24,16.24,0,0,0,6.32,19.12h8.22a16.24,16.24,0,0,0,6.32-19.12Z" fill="#0d1019"/>
    <path id="Path_285" data-name="Path 285" d="M166.45,121.33c-1.55-2.32-4.39-5.68-4.9-8.26s3.1-8.29,3.1-8.29h-9.76s3.61,5.71,3.09,8.29-3.35,5.94-4.9,8.26,2.07,21.28,2.07,21.28h9.24S168,123.65,166.45,121.33Z" fill="#6e00c1"/>
    <path id="Path_286" data-name="Path 286" d="M160.27,98.72a.54.54,0,0,1-.21,0,.5.5,0,0,1-.24-.67,14.48,14.48,0,0,1,9-7.09.5.5,0,0,1,.61.36.51.51,0,0,1-.36.61,13.72,13.72,0,0,0-8.31,6.56.48.48,0,0,1-.49.23Z" fill="#0d1019"/>
    <path id="Path_287" data-name="Path 287" d="M175.26,90.62s-3-2.85-6.22-1.09-.58,3.92,1.85,3.19a17,17,0,0,0,4.37-2.1Z" fill="#0d1019"/>
    <path id="Path_288" data-name="Path 288" d="M172,96.66s-1.26-3.41-4.53-3.25-2,2.89.25,3.25a14.92,14.92,0,0,0,4.28,0Z" fill="#0d1019"/>
    <path id="Path_289" data-name="Path 289" d="M169,86s-3.61-.39-4.92,2.6,1.71,3,3,1.23A15,15,0,0,0,169,86Z" fill="#0d1019"/>
    <path id="Path_290" data-name="Path 290" d="M167.55,95.61a.41.41,0,0,1-.19,0L164,94.18a.52.52,0,0,1-.29-.34c0-.06-.41-1.62.89-4.67a.49.49,0,0,1,.65-.27.5.5,0,0,1,.27.66,8.34,8.34,0,0,0-.87,3.8l3.13,1.29a.5.5,0,0,1,.27.65A.51.51,0,0,1,167.55,95.61Z" fill="#0d1019"/>
    <path id="Path_291" data-name="Path 291" d="M96.45,138.3l-1-.06c2-33.85,2.07-55.15,2.07-55.36h1C98.52,83.09,98.47,104.41,96.45,138.3Z" fill="#0d1019"/>
    <path id="Path_292" data-name="Path 292" d="M93.18,78.05a4,4,0,0,0,.89,2.67l8.15.3a4.12,4.12,0,0,0,.93-3.82.431.431,0,0,0,0-.11A8.23,8.23,0,0,0,102.3,75a27.4,27.4,0,0,0-1.43-2.39l-.15-.23c-1.11-1.67-2.16-3-2.16-3s-1.16,1.3-2.37,2.89l-.2.27h0a26.73,26.73,0,0,0-1.57,2.24,8.57,8.57,0,0,0-1,2v.14a4.63,4.63,0,0,0-.24,1.13Z" fill="#6e00c1"/>
    <path id="Path_293" data-name="Path 293" d="M95.2,78.13a4.11,4.11,0,0,0,.87,2.66l8.52.31a3.51,3.51,0,0,0,.35-.94,6.31,6.31,0,0,0,.27-1.82q0-.24,0-.51c0-.89-.06-1.87-.15-2.79-.18-2.11-.5-4-.5-4s-1.63.61-3.45,1.44l-.25.11c-.87.41-1.77.86-2.54,1.31a7.74,7.74,0,0,0-1.78,1.33h0a4,4,0,0,0-1.07,1.61,4.62,4.62,0,0,0-.27,1.29Z" fill="#6e00c1"/>
    <path id="Path_294" data-name="Path 294" d="M96.94,79.18a4,4,0,0,0,.3,1.66l7.35.26a3.51,3.51,0,0,0,.35-.94,6.31,6.31,0,0,0,.27-1.82v-.51c0-.89-.06-1.87-.15-2.79h-2.77a7.93,7.93,0,0,0-2.3.37h0a4.19,4.19,0,0,0-1.71.94,3.88,3.88,0,0,0-1.08,1.74,3.54,3.54,0,0,0-.26,1.09Z" fill="#6e00c1"/>
    <path id="Path_295" data-name="Path 295" d="M98,80.86l6.59.24a3.51,3.51,0,0,0,.35-.94,6.31,6.31,0,0,0,.27-1.82q0-.24,0-.51a8.55,8.55,0,0,0-2.09-.74h-.16a3.33,3.33,0,0,0-.75-.09,3.78,3.78,0,0,0-1.22.14,4.11,4.11,0,0,0-1.79,1A3.9,3.9,0,0,0,98,80.86Z" fill="#6e00c1"/>
    <path id="Path_296" data-name="Path 296" d="M91.15,77.83a6.27,6.27,0,0,0,.13,1.83,3.76,3.76,0,0,0,.28,1l8.52.31a4.06,4.06,0,0,0,0-5.51.064.064,0,0,0-.06-.06,7.43,7.43,0,0,0-1.67-1.45A24.269,24.269,0,0,0,96,72.49h0l-.33-.19c-1.76-1-3.34-1.68-3.34-1.68s-.45,1.84-.79,3.93a26.834,26.834,0,0,0-.34,2.77,4.491,4.491,0,0,0-.05.51Z" fill="#6e00c1"/>
    <path id="Path_297" data-name="Path 297" d="M91.15,77.83a6.27,6.27,0,0,0,.13,1.83,3.76,3.76,0,0,0,.28,1l7.37.27a4.13,4.13,0,0,0,.41-1.64,3.33,3.33,0,0,0-.13-1.13,3.86,3.86,0,0,0-1-1.81,4,4,0,0,0-1.63-1.06h-.06a7.19,7.19,0,0,0-2.14-.52c-.7-.09-1.47-.15-2.24-.18h-.65a26.83,26.83,0,0,0-.34,2.77A4.488,4.488,0,0,0,91.15,77.83Z" fill="#6e00c1"/>
    <path id="Path_298" data-name="Path 298" d="M91.18,77.32a4.49,4.49,0,0,0,0,.51,6.27,6.27,0,0,0,.13,1.83,3.76,3.76,0,0,0,.28,1l6.61.24a3.87,3.87,0,0,0-.06-.84,4.13,4.13,0,0,0-1-2,4,4,0,0,0-1.73-1.15,3.65,3.65,0,0,0-1.19-.23,3.35,3.35,0,0,0-.77,0h0A7.7,7.7,0,0,0,91.18,77.32Z" fill="#6e00c1"/>
    <path id="Path_299" data-name="Path 299" d="M96.09,80.09C96,82.17,98,83.93,98,83.93s2.12-1.61,2.2-3.69-1.92-3.84-1.92-3.84S96.17,78,96.09,80.09Z" fill="#0d1019"/>
    <path id="Path_300" data-name="Path 300" d="M93.72,84c1.83,1,4.29,0,4.29,0s-.51-2.61-2.34-3.6-4.29,0-4.29,0S91.89,83,93.72,84Z" fill="#0d1019"/>
    <path id="Path_301" data-name="Path 301" d="M102.29,84.28c-1.9.84-4.28-.35-4.28-.35s.7-2.57,2.6-3.42,4.28.35,4.28.35S104.19,83.43,102.29,84.28Z" fill="#0d1019"/>
    <path id="Path_302" data-name="Path 302" d="M97.54,98.72a.5.5,0,0,1-.45-.28,13.64,13.64,0,0,0-8.3-6.56.515.515,0,0,1,.25-1A14.45,14.45,0,0,1,98,98a.5.5,0,0,1-.23.67.54.54,0,0,1-.23.05Z" fill="#0d1019"/>
    <path id="Path_303" data-name="Path 303" d="M82.56,90.62s3-2.85,6.21-1.09.59,3.92-1.84,3.19a17,17,0,0,1-4.37-2.1Z" fill="#0d1019"/>
    <path id="Path_304" data-name="Path 304" d="M85.81,96.66s1.26-3.41,4.52-3.25,2,2.89-.24,3.25A14.89,14.89,0,0,1,85.81,96.66Z" fill="#0d1019"/>
    <path id="Path_305" data-name="Path 305" d="M88.8,86s3.62-.39,4.93,2.6-1.71,3-3,1.23A14.88,14.88,0,0,1,88.8,86Z" fill="#0d1019"/>
    <path id="Path_306" data-name="Path 306" d="M90.27,95.61a.5.5,0,0,1-.46-.31.49.49,0,0,1,.27-.65l3.13-1.29a8.67,8.67,0,0,0-.87-3.8.5.5,0,1,1,.92-.39c1.3,3,.91,4.61.89,4.67a.52.52,0,0,1-.29.34l-3.4,1.39A.43.43,0,0,1,90.27,95.61Zm3.4-1.9Z" fill="#0d1019"/>
    <path id="Path_307" data-name="Path 307" d="M182.66,143.61H77.34a1,1,0,0,1,0-2H182.66a1,1,0,0,1,0,2Z" fill="#e2eaf2"/>
  </g>
</svg>
