<svg xmlns="http://www.w3.org/2000/svg" width="185.52" height="114.31" viewBox="0 0 185.52 114.31">
  <g id="Design_tools-60b6" data-name="Design tools-60b6" transform="translate(-37.26 -32.85)">
    <circle id="Ellipse_68" data-name="Ellipse 68" cx="2" cy="2" r="2" transform="translate(49.56 32.85)" fill="#e2eaf2"/>
    <circle id="Ellipse_69" data-name="Ellipse 69" cx="2" cy="2" r="2" transform="translate(43.41 39)" fill="#e2eaf2"/>
    <circle id="Ellipse_70" data-name="Ellipse 70" cx="2" cy="2" r="2" transform="translate(37.26 45.15)" fill="#e2eaf2"/>
    <circle id="Ellipse_71" data-name="Ellipse 71" cx="2" cy="2" r="2" transform="translate(55.46 38.75)" fill="#e2eaf2"/>
    <circle id="Ellipse_72" data-name="Ellipse 72" cx="2" cy="2" r="2" transform="translate(49.31 44.9)" fill="#e2eaf2"/>
    <circle id="Ellipse_73" data-name="Ellipse 73" cx="2" cy="2" r="2" transform="translate(43.16 51.05)" fill="#e2eaf2"/>
    <circle id="Ellipse_74" data-name="Ellipse 74" cx="2" cy="2" r="2" transform="translate(61.36 44.65)" fill="#e2eaf2"/>
    <circle id="Ellipse_75" data-name="Ellipse 75" cx="2" cy="2" r="2" transform="translate(55.21 50.8)" fill="#e2eaf2"/>
    <path id="Path_197" data-name="Path 197" d="M200.15,132.88a15.856,15.856,0,0,1-2.06-.09l.34-3.8a20.1,20.1,0,0,0,3.47,0l.35,3.8Q201.22,132.88,200.15,132.88ZM194,132a22.16,22.16,0,0,1-3.89-1.5l1.7-3.41a18.879,18.879,0,0,0,3.23,1.24Zm12.36,0-1-3.67a19.339,19.339,0,0,0,3.22-1.25l1.71,3.41a22.381,22.381,0,0,1-3.94,1.51Zm-19.79-3.68a22.12,22.12,0,0,1-3.08-2.8l2.81-2.58a18.329,18.329,0,0,0,2.57,2.33Zm27.22,0-2.31-3a18.9,18.9,0,0,0,2.56-2.34l2.82,2.57a22.059,22.059,0,0,1-3.08,2.76ZM181,122.22a22,22,0,0,1-1.87-3.73l3.56-1.39a18.691,18.691,0,0,0,1.55,3.1Zm38.4,0-3.24-2a18.689,18.689,0,0,0,1.55-3.1l3.56,1.38a22.808,22.808,0,0,1-1.91,3.68Zm-41.42-7.7a22.85,22.85,0,0,1-.38-4.14h3.81a18.089,18.089,0,0,0,.33,3.45Zm44.42,0-3.75-.7a18.931,18.931,0,0,0,.32-3.45l3.81-.09v.09a22.1,22.1,0,0,1-.42,4.07Zm-40.68-7.56-3.75-.69a22.1,22.1,0,0,1,1.13-4l3.56,1.37a18.089,18.089,0,0,0-.98,3.24Zm36.92-.12a19.107,19.107,0,0,0-1-3.32l3.55-1.4a22.191,22.191,0,0,1,1.16,4Zm-34.44-6.32-3.25-2a23.173,23.173,0,0,1,2.5-3.33l2.83,2.57a18,18,0,0,0-2.12,2.68Zm31.92-.09a18.771,18.771,0,0,0-2.1-2.76L216.79,95a23.19,23.19,0,0,1,2.53,3.31Zm-27.29-5-2.31-3a22.71,22.71,0,0,1,3.54-2.2l1.71,3.41a18.26,18.26,0,0,0-2.98,1.69Zm22.62-.07a19,19,0,0,0-2.95-1.81L210.15,90a23,23,0,0,1,3.55,2.19Zm-16.45-3-1.06-3.67a22.64,22.64,0,0,1,4.1-.77l.36,3.8a18.541,18.541,0,0,0-3.4.52Zm10.27,0a18.771,18.771,0,0,0-3.41-.62l.34-3.81a23.85,23.85,0,0,1,4.1.75Z" fill="#e2eaf2"/>
    <path id="Path_198" data-name="Path 198" d="M58.86,50.61H195.55A3.45,3.45,0,0,1,199,54.06v92.26H55.41V54.06A3.45,3.45,0,0,1,58.86,50.61Z" fill="#0d1019"/>
    <rect id="Rectangle_67" data-name="Rectangle 67" width="88.3" height="74.62" transform="translate(83.98 66.15)" fill="#e2eaf2"/>
    <path id="Path_199" data-name="Path 199" d="M86.26,61.84H170a2.28,2.28,0,0,1,2.28,2.28v2H84v-2a2.28,2.28,0,0,1,2.26-2.28Z" fill="#6e00c1"/>
    <circle id="Ellipse_76" data-name="Ellipse 76" cx="0.59" cy="0.59" r="0.59" transform="translate(85.94 63.4)" fill="#fafafa"/>
    <circle id="Ellipse_77" data-name="Ellipse 77" cx="0.59" cy="0.59" r="0.59" transform="translate(88.46 63.4)" fill="#fafafa"/>
    <circle id="Ellipse_78" data-name="Ellipse 78" cx="0.59" cy="0.59" r="0.59" transform="translate(90.98 63.4)" fill="#fafafa"/>
    <rect id="Rectangle_68" data-name="Rectangle 68" width="52.74" height="52.74" transform="translate(101.25 77.44)" fill="#fafafa"/>
    <path id="Path_200" data-name="Path 200" d="M45.16,140.77H211.11a6.39,6.39,0,0,1-6.39,6.39H51.55a6.39,6.39,0,0,1-6.39-6.39Z" fill="#6e00c1"/>
    <rect id="Rectangle_69" data-name="Rectangle 69" width="23.59" height="67.01" transform="translate(68.56 73.75)" fill="#fafafa"/>
    <path id="Path_201" data-name="Path 201" d="M71.14,71.31H89.56a2.59,2.59,0,0,1,2.59,2.59v2.3H68.56V73.89A2.59,2.59,0,0,1,71.14,71.31Z" fill="#6e00c1"/>
    <rect id="Rectangle_70" data-name="Rectangle 70" width="7.68" height="7.68" transform="translate(71.17 78.86)" fill="#e2eaf2"/>
    <rect id="Rectangle_71" data-name="Rectangle 71" width="7.68" height="7.68" transform="translate(81.63 78.86)" fill="#e2eaf2"/>
    <rect id="Rectangle_72" data-name="Rectangle 72" width="7.68" height="7.68" transform="translate(71.17 88.04)" fill="#e2eaf2"/>
    <rect id="Rectangle_73" data-name="Rectangle 73" width="7.68" height="7.68" transform="translate(81.63 88.04)" fill="#e2eaf2"/>
    <rect id="Rectangle_74" data-name="Rectangle 74" width="7.68" height="7.68" transform="translate(71.17 97.23)" fill="#e2eaf2"/>
    <rect id="Rectangle_75" data-name="Rectangle 75" width="7.68" height="7.68" transform="translate(81.63 97.23)" fill="#e2eaf2"/>
    <rect id="Rectangle_76" data-name="Rectangle 76" width="7.68" height="7.68" transform="translate(71.17 106.42)" fill="#e2eaf2"/>
    <rect id="Rectangle_77" data-name="Rectangle 77" width="7.68" height="7.68" transform="translate(81.63 106.42)" fill="#e2eaf2"/>
    <rect id="Rectangle_78" data-name="Rectangle 78" width="7.68" height="7.68" transform="translate(71.17 115.61)" fill="#e2eaf2"/>
    <rect id="Rectangle_79" data-name="Rectangle 79" width="7.68" height="7.68" transform="translate(81.63 115.61)" fill="#e2eaf2"/>
    <rect id="Rectangle_80" data-name="Rectangle 80" width="7.68" height="7.68" transform="translate(72.79 130.18)" fill="#6e00c1"/>
    <path id="Path_202" data-name="Path 202" d="M78.63,134v6.75h2.08v-4.66h5.12v4.66h2.08V134Z" fill="#6e00c1"/>
    <circle id="Ellipse_79" data-name="Ellipse 79" cx="0.67" cy="0.67" r="0.67" transform="translate(88.64 73.3)" fill="#fafafa"/>
    <path id="Path_203" data-name="Path 203" d="M160.07,71.31h24.42a2.59,2.59,0,0,1,2.59,2.59v2.3h-29.6V73.89a2.59,2.59,0,0,1,2.59-2.58Z" fill="#6e00c1"/>
    <path id="Path_204" data-name="Path 204" d="M157.48,76.2h29.6V90.05a1.72,1.72,0,0,1-1.72,1.72H159.21a1.72,1.72,0,0,1-1.72-1.72V76.2Z" fill="#fafafa"/>
    <circle id="Ellipse_80" data-name="Ellipse 80" cx="0.67" cy="0.67" r="0.67" transform="translate(183.52 73.3)" fill="#fafafa"/>
    <path id="Path_205" data-name="Path 205" d="M160.07,98.92h24.42a2.59,2.59,0,0,1,2.59,2.59v2.31h-29.6v-2.31a2.59,2.59,0,0,1,2.59-2.59Z" fill="#6e00c1"/>
    <path id="Path_206" data-name="Path 206" d="M157.48,103.82h29.6v13.85a1.72,1.72,0,0,1-1.72,1.72H159.21a1.72,1.72,0,0,1-1.72-1.72V103.82Z" fill="#fafafa"/>
    <circle id="Ellipse_81" data-name="Ellipse 81" cx="0.67" cy="0.67" r="0.67" transform="translate(183.52 100.7)" fill="#fafafa"/>
    <path id="Path_207" data-name="Path 207" d="M136.16,93.3c1.64,1.1.89,3.68-1.78,5.57a27.26,27.26,0,0,0-5.45,5.46c-.89,1.11-1.22-2.9,0-6.35S133.83,91.74,136.16,93.3Z" fill="#6e00c1"/>
    <path id="Path_208" data-name="Path 208" d="M125.54,106.52c1.28-3.42,1.42-5.84,0-8.17s-5.18-2.17-4.09,1.08,1.63,3.09,2.44,6.34S125.1,107.67,125.54,106.52Z" fill="#6e00c1"/>
    <path id="Path_209" data-name="Path 209" d="M123.25,112.63c.6-3.61.27-6-1.57-8s-5.49-1.14-3.8,1.85,2.19,2.72,3.61,5.75S123.05,113.84,123.25,112.63Z" fill="#6e00c1"/>
    <path id="Path_210" data-name="Path 210" d="M128,107.88c2-3.07,3.86-4.61,6.58-4.86s4.82,2.87,1.56,3.93-3.46.53-6.56,1.81S127.33,108.91,128,107.88Z" fill="#6e00c1"/>
    <path id="Path_211" data-name="Path 211" d="M125.64,113.35c2.35-2.8,4.39-4.1,7.12-4s4.44,3.44,1.07,4.1-3.49.09-6.72,1S124.85,114.3,125.64,113.35Z" fill="#6e00c1"/>
    <path id="Path_212" data-name="Path 212" d="M195.49,109.09a5.937,5.937,0,0,1-1.05-.06h-.16a.863.863,0,1,1,.14-1.72h.17a6.06,6.06,0,0,0,5.49-2.27,7.18,7.18,0,0,1,3.1-2.32,7.42,7.42,0,0,1,2.14-.57.85.85,0,0,1,.94.77.87.87,0,0,1-.77,1,5.73,5.73,0,0,0-1.65.44,5.52,5.52,0,0,0-2.44,1.85,7.14,7.14,0,0,1-3.09,2.32,7.06,7.06,0,0,1-2.82.56Z" fill="#e2eaf2"/>
    <path id="Path_213" data-name="Path 213" d="M197.44,113.76a5.881,5.881,0,0,1-1.05-.06h-.17a.863.863,0,0,1,.15-1.72h.17a5.58,5.58,0,0,0,3.05-.43,5.5,5.5,0,0,0,2.44-1.84,7.22,7.22,0,0,1,3.09-2.33,7.91,7.91,0,0,1,2.15-.57.864.864,0,1,1,.16,1.72,5.62,5.62,0,0,0-1.65.45,5.5,5.5,0,0,0-2.44,1.84,7.8,7.8,0,0,1-5.9,2.93Z" fill="#e2eaf2"/>
    <path id="Path_214" data-name="Path 214" d="M199.39,118.44h-1.22a.863.863,0,1,1,.15-1.72h.16A6.1,6.1,0,0,0,204,114.4a7.25,7.25,0,0,1,3.1-2.32,7.46,7.46,0,0,1,2.14-.58.88.88,0,0,1,.95.78.87.87,0,0,1-.78.94,5.77,5.77,0,0,0-1.65.45,5.51,5.51,0,0,0-2.44,1.84,7.8,7.8,0,0,1-5.9,2.93Z" fill="#e2eaf2"/>
  </g>
</svg>
