<svg xmlns="http://www.w3.org/2000/svg" width="304.351" height="199.174" viewBox="0 0 304.351 199.174">
  <g id="Lightbulb-60b6" transform="translate(-48.382 -36.57)">
    <path id="Path_164" data-name="Path 164" d="M218.762,58.716c-46.183-12.287-92.31-7.01-114.46,0S75.962,100.554,78.461,126.3c2.219,22.914,3.729,69.4,40.608,72.714,23.567,2.144,65.76,1.7,98.22-.5v21.348a3.1,3.1,0,0,0,5.948,1.212l10.18-23.865a141.945,141.945,0,0,0,24.48-3.915c19.2-6.06,21.4-36.022,22.9-59.066S282.564,75.7,218.762,58.716Z" transform="translate(25.553 12.776)" fill="#6e00c1"/>
    <path id="Path_165" data-name="Path 165" d="M187.3,206.674H94.393s-24.965,1.4-26.718-9.621c-1.063-6.693,6.414-7.887,13.368-15.96s-4.288-13.424-17.638-14.487-22.374-9.621-5.351-22.374,26.718-20.994,12.287-37.476S35.271,71.333,59.658,62.924c21.684-7.458,42.3,41.764,47.861,59.4s18.2,13.35,27.109-3.207,30.82-22.374,30.82,4.81-17.862,47.544,11.373,50.21,32.181,10.516,26.9,22.97C199.661,206.674,187.3,206.674,187.3,206.674Z" transform="translate(0 22.122)" fill="#0d1019"/>
    <path id="Path_166" data-name="Path 166" d="M182.561,94.193a34.343,34.343,0,0,0-68.687,0c0,.41,0,.82,0,1.212-.168,3.449.112,13.872,8.222,26.475a56.046,56.046,0,0,1,7.756,21.8h36.786a56.046,56.046,0,0,1,7.756-21.8C184.406,106.387,182.561,94.193,182.561,94.193Z" transform="translate(56.59 20.125)" fill="#fafafa"/>
    <path id="Path_167" data-name="Path 167" d="M146.2,138.079h-8.316a1.473,1.473,0,0,1-1.4-1.063l-14.431-53.51a7.719,7.719,0,0,1-.988-3.729,1.436,1.436,0,0,1,1.249-1.417,1.454,1.454,0,0,1,1.566,1.044l.82,3.1a5.09,5.09,0,0,0,9.322-2.722,1.436,1.436,0,0,1,2.853,0,5.09,5.09,0,1,0,10.161-.112,1.436,1.436,0,1,1,2.871,0,5.09,5.09,0,0,0,9.322,2.722l.82-3.1a1.454,1.454,0,0,1,1.585-1.044,1.436,1.436,0,0,1,1.231,1.417,7.906,7.906,0,0,1-.97,3.729l-14.45,53.51a1.454,1.454,0,0,1-1.249,1.175Zm-7.234-2.871h6.209L158.229,87.03a8,8,0,0,1-9.565-2.8,7.961,7.961,0,0,1-13.051,0,8,8,0,0,1-9.565,2.8Z" transform="translate(62.836 36.014)" fill="#6e00c1"/>
    <path id="Path_168" data-name="Path 168" d="M167.177,103.42H119.54A22.859,22.859,0,0,0,131.475,123.5a18.533,18.533,0,0,1,6.8,6.17v.131a8.316,8.316,0,0,0,10.012,0v-.13A18.645,18.645,0,0,1,155.1,123.5a22.858,22.858,0,0,0,12.082-20.08Z" transform="translate(61.514 57.79)" fill="#0d1019"/>
    <path id="Path_169" data-name="Path 169" d="M88.407,102.623,77.854,92.07,67.3,102.623a1.4,1.4,0,0,0,.988,2.368H74.2v9.322h7.309v-9.322H87.4a1.4,1.4,0,0,0,1.007-2.368Z" transform="translate(16.017 47.978)" fill="#e2eaf2"/>
    <path id="Path_170" data-name="Path 170" d="M106.132,117.343,95.579,106.79,85.026,117.343a1.417,1.417,0,0,0,1.007,2.405h5.892v9.322h7.309v-9.322h5.91a1.4,1.4,0,0,0,.988-2.405Z" transform="translate(31.33 60.703)" fill="#e2eaf2"/>
    <path id="Path_171" data-name="Path 171" d="M106.108,86.633,95.556,76.08,85,86.633a1.417,1.417,0,0,0,1.007,2.349H91.9V98.3H99.21V88.982h5.91a1.4,1.4,0,0,0,.988-2.349Z" transform="translate(31.354 34.155)" fill="#e2eaf2"/>
    <path id="Path_172" data-name="Path 172" d="M251.264,66.047a45.809,45.809,0,0,0-7.215-12.436l-20.211,2.181-8.185-18.645a44.523,44.523,0,0,0-14.3,0l-8.241,18.645L172.9,53.611A43.926,43.926,0,0,0,165.76,66.1l11.97,16.314-11.97,16.37a43.648,43.648,0,0,0,7.2,12.492l20.155-2.219,8.241,18.645a45.977,45.977,0,0,0,14.3,0l8.185-18.645,20.155,2.219a44.151,44.151,0,0,0,7.215-12.492l-11.97-16.37Zm-42.752,36.432a20.062,20.062,0,1,1,20.043-20.062A20.062,20.062,0,0,1,208.512,102.479Z" transform="translate(101.469 0)" fill="#0d1019"/>
    <circle id="Ellipse_55" data-name="Ellipse 55" cx="10.348" cy="10.348" r="10.348" transform="translate(299.634 72.069)" fill="#e2eaf2"/>
  </g>
</svg>
