<svg xmlns="http://www.w3.org/2000/svg" width="224.788" height="199.321" viewBox="0 0 224.788 199.321">
  <g id="Appreciation-60b6" transform="translate(-60.46 -28.341)">
    <path id="Path_135" data-name="Path 135" d="M140.732,113.787l-5.043-2.877a13.771,13.771,0,0,1-5.075-18.765l22.758-39.664a13.755,13.755,0,0,1,18.765-5.075l5.043,2.893-2.311,4.041-5.043-2.893a9.1,9.1,0,0,0-12.4,3.346L134.67,94.456a9.067,9.067,0,0,0,3.346,12.4l5.043,2.893Z" transform="translate(42.115 10.625)" fill="#e2eaf2"/>
    <path id="Path_136" data-name="Path 136" d="M174.633,134.059l-5.043-2.845,2.327-4.057,5.043,2.909a9.1,9.1,0,0,0,12.4-3.362l22.774-39.664a9.1,9.1,0,0,0-3.362-12.4l-5.043-2.893,2.327-4.041L211.1,70.6a13.771,13.771,0,0,1,5.075,18.765L193.4,129.033A13.771,13.771,0,0,1,174.633,134.059Z" transform="translate(67.257 24.263)" fill="#e2eaf2"/>
    <rect id="Rectangle_56" data-name="Rectangle 56" width="73.396" height="45.24" rx="2.45" transform="translate(207.519 70.279) rotate(29.86)" fill="#e2eaf2"/>
    <path id="Path_137" data-name="Path 137" d="M146,80.861,189.915,106.2a101.277,101.277,0,0,0,0-19.622c-1.067-10.264-1.39-13.157-9.229-10.506a81.415,81.415,0,0,0-12.8,5.447,59.058,59.058,0,0,0-2.247-7.629C164.248,70.468,146,80.861,146,80.861Z" transform="translate(52.719 27.647)" fill="#fafafa"/>
    <circle id="Ellipse_47" data-name="Ellipse 47" cx="5.011" cy="5.011" r="5.011" transform="translate(215.884 87.448)" fill="#fafafa"/>
    <path id="Path_138" data-name="Path 138" d="M100.16,92.4l-4.4,1.18a10.732,10.732,0,0,1-13.157-7.564l-9.326-34.54a10.748,10.748,0,0,1,7.564-13.157l4.4-1.2.937,3.524-4.38,1.18a7.1,7.1,0,0,0-4.994,8.7l9.31,34.492a7.112,7.112,0,0,0,8.7,5.011l4.4-1.2Z" transform="translate(7.674 5.41)" fill="#e2eaf2"/>
    <path id="Path_139" data-name="Path 139" d="M128.889,83.94l-4.38,1.18-.954-3.524,4.38-1.18a7.1,7.1,0,0,0,5.011-8.7L123.62,37.229a7.1,7.1,0,0,0-8.7-4.994l-4.38,1.18-.954-3.507,4.38-1.2a10.765,10.765,0,0,1,13.173,7.564l9.31,34.492a10.748,10.748,0,0,1-7.564,13.173Z" transform="translate(30.279 0)" fill="#e2eaf2"/>
    <rect id="Rectangle_57" data-name="Rectangle 57" width="57.347" height="35.349" rx="1.92" transform="translate(91.566 54.27) rotate(-15.12)" fill="#e2eaf2"/>
    <path id="Path_140" data-name="Path 140" d="M89.73,70.223l38.258-10.247a78.391,78.391,0,0,0-10.813-10.845c-6.255-5.091-8.082-6.465-10.91-.711a63.037,63.037,0,0,0-4.057,10.07,44.787,44.787,0,0,0-5.463-2.958C94.11,54.367,89.73,70.223,89.73,70.223Z" transform="translate(18.039 10.064)" fill="#fafafa"/>
    <circle id="Ellipse_48" data-name="Ellipse 48" cx="3.911" cy="3.911" r="3.911" transform="translate(107.284 55.235)" fill="#fafafa"/>
    <rect id="Rectangle_58" data-name="Rectangle 58" width="11.848" height="28.431" rx="1.44" transform="translate(75.605 128.728)" fill="#e2eaf2"/>
    <rect id="Rectangle_59" data-name="Rectangle 59" width="11.848" height="26.992" rx="1.41" transform="translate(60.46 171.867) rotate(-90)" fill="#e2eaf2"/>
    <rect id="Rectangle_60" data-name="Rectangle 60" width="11.848" height="45.37" rx="1.41" transform="translate(69.835 186.576) rotate(-90)" fill="#e2eaf2"/>
    <rect id="Rectangle_61" data-name="Rectangle 61" width="11.848" height="16.276" rx="1.44" transform="translate(60.46 140.883)" fill="#e2eaf2"/>
    <rect id="Rectangle_62" data-name="Rectangle 62" width="11.848" height="16.276" rx="1.44" transform="translate(98.055 189.453)" fill="#e2eaf2"/>
    <path id="Path_141" data-name="Path 141" d="M207.562,152.547H83.624a1.164,1.164,0,1,1,0-2.327H207.562a1.164,1.164,0,0,1,0,2.328Z" transform="translate(13.559 75.115)" fill="#e2eaf2"/>
    <path id="Path_142" data-name="Path 142" d="M88.28,70.061h0a1.794,1.794,0,0,1-1.164,1.616,13.609,13.609,0,0,0-7.888,7.888,1.826,1.826,0,0,1-1.616,1.164h0A1.81,1.81,0,0,1,76,79.565a13.577,13.577,0,0,0-7.952-7.888,1.794,1.794,0,0,1-1.164-1.616h0a1.794,1.794,0,0,1,1.164-1.616,13.593,13.593,0,0,0,7.871-7.871,1.81,1.81,0,0,1,1.616-1.164h0a1.826,1.826,0,0,1,1.616,1.164,13.625,13.625,0,0,0,7.968,7.871A1.794,1.794,0,0,1,88.28,70.061Z" transform="translate(3.957 19.148)" fill="#0a0d16"/>
    <path id="Path_143" data-name="Path 143" d="M90.937,86.315h0a1.374,1.374,0,0,1-.873,1.261,10.28,10.28,0,0,0-5.948,5.948,1.374,1.374,0,0,1-1.261.873h0a1.358,1.358,0,0,1-1.261-.873,10.3,10.3,0,0,0-5.916-5.98,1.358,1.358,0,0,1-.889-1.261h0a1.358,1.358,0,0,1,.889-1.245,10.312,10.312,0,0,0,5.916-5.9,1.358,1.358,0,0,1,1.245-.889h0a1.358,1.358,0,0,1,1.261.889,10.3,10.3,0,0,0,5.948,5.932,1.358,1.358,0,0,1,.889,1.245Z" transform="translate(8.832 30.759)" fill="#0a0d16"/>
    <path id="Path_144" data-name="Path 144" d="M98.626,75.38h0a1.374,1.374,0,0,1-.873,1.261,10.425,10.425,0,0,0-6.013,6,1.358,1.358,0,0,1-1.261.889h0a1.358,1.358,0,0,1-1.261-.889,10.361,10.361,0,0,0-5.98-6,1.358,1.358,0,0,1-.889-1.261h0a1.358,1.358,0,0,1,.889-1.261,10.328,10.328,0,0,0,5.98-6,1.374,1.374,0,0,1,1.261-.873h0a1.374,1.374,0,0,1,1.261.873,10.377,10.377,0,0,0,6.013,6A1.374,1.374,0,0,1,98.626,75.38Z" transform="translate(13.491 23.98)" fill="#0a0d16"/>
    <path id="Path_145" data-name="Path 145" d="M166.59,77.45h-42.38A43.107,43.107,0,0,0,81.12,120.557h0a43.107,43.107,0,0,0,43.091,43.091H160c.533,1.083,1.115,2.15,1.729,3.152a28.059,28.059,0,0,0,7.1,7.726,22.628,22.628,0,0,0,8.712,4.025,25.523,25.523,0,0,0,4.332.582c1.406,0,2.8-.1,4.105-.162a.6.6,0,0,0,.436-.21.614.614,0,0,0,0-.857h0c-1-.857-2-1.616-2.845-2.489a18.1,18.1,0,0,1-2.2-2.764,12.559,12.559,0,0,1-2.117-5.77,12.93,12.93,0,0,1,.485-5.156,43.123,43.123,0,0,0,30.144-41.1h0A43.107,43.107,0,0,0,166.59,77.45Z" transform="translate(12.733 30.266)" fill="#6e00c1"/>
    <path id="Path_146" data-name="Path 146" d="M165.821,107.524a17.149,17.149,0,0,1-4.978,12.074,18.43,18.43,0,0,1-1.616,1.374l-25.877,20.495L107.375,121c-.55-.436-1.083-.905-1.616-1.374a17.1,17.1,0,0,1,22.725-25.489l4.849,3.782,4.849-3.782a17.1,17.1,0,0,1,27.639,13.383Z" transform="translate(24.817 38.256)" fill="#fafafa"/>
  </g>
</svg>
