<svg xmlns="http://www.w3.org/2000/svg" width="30.536" height="30.536" viewBox="0 0 30.536 30.536">
  <path id="instagram" d="M15.268,0C11.125,0,10.6.019,8.976.092A11.25,11.25,0,0,0,5.267.8a7.476,7.476,0,0,0-2.7,1.762A7.5,7.5,0,0,0,.8,5.267a11.184,11.184,0,0,0-.71,3.7C.019,10.6,0,11.121,0,15.27s.019,4.664.092,6.292A11.248,11.248,0,0,0,.8,25.269a7.817,7.817,0,0,0,4.464,4.466,11.209,11.209,0,0,0,3.706.71c1.63.073,2.149.092,6.3.092s4.664-.019,6.294-.092a11.271,11.271,0,0,0,3.708-.71,7.817,7.817,0,0,0,4.464-4.466,11.3,11.3,0,0,0,.71-3.706c.073-1.628.092-2.147.092-6.294s-.019-4.666-.092-6.3a11.285,11.285,0,0,0-.71-3.7,7.493,7.493,0,0,0-1.762-2.7A7.464,7.464,0,0,0,25.269.8,11.232,11.232,0,0,0,21.56.092C19.931.019,19.413,0,15.264,0h.006ZM13.9,2.752h1.37c4.077,0,4.559.013,6.168.088a8.461,8.461,0,0,1,2.836.525A4.737,4.737,0,0,1,26.03,4.508a4.717,4.717,0,0,1,1.141,1.756A8.386,8.386,0,0,1,27.7,9.1c.074,1.609.09,2.092.09,6.166s-.015,4.559-.09,6.168a8.447,8.447,0,0,1-.525,2.834,5.06,5.06,0,0,1-2.9,2.9,8.4,8.4,0,0,1-2.834.527c-1.609.073-2.092.09-6.168.09s-4.561-.017-6.17-.09a8.433,8.433,0,0,1-2.834-.527A4.729,4.729,0,0,1,4.51,26.021a4.733,4.733,0,0,1-1.145-1.756,8.435,8.435,0,0,1-.525-2.834c-.073-1.609-.088-2.092-.088-6.17s.015-4.558.088-6.166a8.448,8.448,0,0,1,.527-2.836A4.737,4.737,0,0,1,4.51,4.5,4.717,4.717,0,0,1,6.266,3.361,8.433,8.433,0,0,1,9.1,2.834c1.408-.065,1.954-.084,4.8-.086v0Zm9.52,2.534a1.832,1.832,0,1,0,1.832,1.832,1.832,1.832,0,0,0-1.832-1.832ZM15.27,7.428a7.842,7.842,0,1,0,7.842,7.842A7.841,7.841,0,0,0,15.27,7.428Zm0,2.75a5.09,5.09,0,1,1-5.09,5.09A5.09,5.09,0,0,1,15.27,10.178Z" fill="#fff"/>
</svg>
