<svg xmlns="http://www.w3.org/2000/svg" width="280.192" height="199.24" viewBox="0 0 280.192 199.24">
  <g id="Group_chat-60b6" data-name="Group chat-60b6" transform="translate(-59.15 -39.62)">
    <path id="Path_147" data-name="Path 147" d="M271.514,183.5c13.565-15.4,18.172-29.087,12-33.4s-15.384,7.4-19.774,0,10.46-12.734,22.166-21.751,17.243-23.412,8.621-32.231S274.757,97.153,268.053,107s-8.008,14.791-16.017,12.932,2.452-9.887,2.452-16.926-11.706-16.333-19.1-3.955-8.008,18.785-11.706,16.471.573-10.618-4.311-15.443c-8.918-8.859-15.087,7.771-35.415,29.542s-30.175,16.669-23.412,6.585,17.262-25.468,7.4-28.553S147.751,132.192,132.9,149.81s-19.774,14.1-14.85,4.251-4.33-16.432-17.262,0S78.8,183.5,78.8,183.5H271.514Z" transform="translate(19.205 51.875)" fill="#0d1019"/>
    <path id="Path_148" data-name="Path 148" d="M213.744,102.79H97.614a5.141,5.141,0,0,0-5.141,5.141v27.683L82.21,144.137H213.823a5.161,5.161,0,0,0,5.161-5.161V107.931a5.161,5.161,0,0,0-5.24-5.141Z" transform="translate(22.538 61.74)" fill="#6e00c1"/>
    <path id="Path_149" data-name="Path 149" d="M137.487,114.809H97.94a3.52,3.52,0,0,1,0-7.039h39.547a3.52,3.52,0,1,1,0,7.039Z" transform="translate(34.472 66.608)" fill="#fafafa"/>
    <path id="Path_150" data-name="Path 150" d="M165.946,121.031H97.47a2.353,2.353,0,1,1,0-4.686h68.476a2.353,2.353,0,1,1,0,4.686Z" transform="translate(34.942 74.979)" fill="#fafafa"/>
    <path id="Path_151" data-name="Path 151" d="M213.744,39.62H97.614a5.141,5.141,0,0,0-5.141,5.161V72.464L82.21,80.987H213.823a5.161,5.161,0,0,0,5.161-5.161V44.781a5.161,5.161,0,0,0-5.24-5.161Z" transform="translate(22.538)" fill="#6e00c1"/>
    <path id="Path_152" data-name="Path 152" d="M137.487,51.639H97.94a3.52,3.52,0,0,1,0-7.039h39.547a3.52,3.52,0,0,1,0,7.039Z" transform="translate(34.472 4.868)" fill="#fafafa"/>
    <path id="Path_153" data-name="Path 153" d="M165.946,57.861H97.47a2.353,2.353,0,1,1,0-4.686h68.476a2.353,2.353,0,1,1,0,4.686Z" transform="translate(34.942 13.239)" fill="#fafafa"/>
    <path id="Path_154" data-name="Path 154" d="M216.107,104.29A17.915,17.915,0,1,1,204.8,81.63a17.915,17.915,0,0,1,11.311,22.661Z" transform="translate(119.281 40.15)" fill="#6e00c1"/>
    <circle id="Ellipse_49" data-name="Ellipse 49" cx="15.68" cy="15.68" r="15.68" transform="translate(302.722 123.085)" fill="#fafafa"/>
    <path id="Path_155" data-name="Path 155" d="M184.58,94.44a11.864,11.864,0,0,0,22.463,0,14.277,14.277,0,0,0-22.463,0Z" transform="translate(122.591 48.24)" fill="#6e00c1"/>
    <circle id="Ellipse_50" data-name="Ellipse 50" cx="4.508" cy="4.508" r="4.508" transform="translate(313.894 126.624)" fill="#6e00c1"/>
    <path id="Path_156" data-name="Path 156" d="M95.587,135.66A17.915,17.915,0,1,1,84.276,113,17.915,17.915,0,0,1,95.587,135.66Z" transform="translate(1.489 70.81)" fill="#6e00c1"/>
    <circle id="Ellipse_51" data-name="Ellipse 51" cx="15.68" cy="15.68" r="15.68" transform="translate(64.41 185.154)" fill="#fafafa"/>
    <path id="Path_157" data-name="Path 157" d="M64.06,125.846a11.864,11.864,0,0,0,22.463,0,14.257,14.257,0,0,0-22.463,0Z" transform="translate(4.799 78.923)" fill="#6e00c1"/>
    <circle id="Ellipse_52" data-name="Ellipse 52" cx="4.508" cy="4.508" r="4.508" transform="translate(75.582 188.694)" fill="#6e00c1"/>
    <path id="Path_158" data-name="Path 158" d="M95.587,73.48a17.9,17.9,0,1,1-.957-13.675A17.915,17.915,0,0,1,95.587,73.48Z" transform="translate(1.489 10.037)" fill="#6e00c1"/>
    <circle id="Ellipse_53" data-name="Ellipse 53" cx="15.68" cy="15.68" r="15.68" transform="translate(64.41 62.142)" fill="#fafafa"/>
    <path id="Path_159" data-name="Path 159" d="M64.06,63.63a11.864,11.864,0,0,0,22.463,0,14.277,14.277,0,0,0-22.463,0Z" transform="translate(4.799 18.128)" fill="#6e00c1"/>
    <circle id="Ellipse_54" data-name="Ellipse 54" cx="4.508" cy="4.508" r="4.508" transform="translate(75.582 65.682)" fill="#6e00c1"/>
    <path id="Path_160" data-name="Path 160" d="M113.821,71h116.13a5.141,5.141,0,0,1,5.141,5.161v27.683l10.243,8.522H113.821a5.141,5.141,0,0,1-5.161-5.141V76.181A5.161,5.161,0,0,1,113.821,71Z" transform="translate(48.389 30.67)" fill="#6e00c1"/>
    <path id="Path_161" data-name="Path 161" d="M118.05,83.029H157.6a3.52,3.52,0,0,0,0-7.039H118.05a3.52,3.52,0,0,0,0,7.039Z" transform="translate(54.126 35.547)" fill="#fafafa"/>
    <path id="Path_162" data-name="Path 162" d="M116.99,89.251h68.5a2.353,2.353,0,0,0,0-4.686h-68.5a2.353,2.353,0,1,0,0,4.686Z" transform="translate(54.02 43.918)" fill="#fafafa"/>
    <path id="Path_163" data-name="Path 163" d="M337.365,142.335H61.127a1.977,1.977,0,0,1,0-3.955H337.365a1.977,1.977,0,1,1,0,3.955Z" transform="translate(0 96.525)" fill="#e2eaf2"/>
  </g>
</svg>
