<svg xmlns="http://www.w3.org/2000/svg" width="254.408" height="198.01" viewBox="0 0 254.408 198.01">
  <g id="Internet_cats-60b6" data-name="Internet cats-60b6" transform="translate(-58.064 -34)">
    <path id="Path_110" data-name="Path 110" d="M180.59,132.1c-3.907,1.662-12.6,5.409-20.082,9.458s-12.145,10.342-7.5,16.935H140.638s-4.95-6.594,1.2-12.145,35.073-16.635,35.073-16.635Z" transform="translate(61.953 73.485)" fill="#0d1019"/>
    <path id="Path_111" data-name="Path 111" d="M175.35,92.71c5.692-9.3,11.685-11.95,14.142-4.932s3.889,10.73,3.889,10.73a33.924,33.924,0,0,1,20.4,2.9,49.091,49.091,0,0,1,10.448-10.5c6.293-4.49,8.7-5.692,12.587,5.993s3.536,11.95,5.3,18c2.245,7.655,4.349,37.124-12.145,47.059v31.82H152.863s-7.8-3.306-4.19-9.6S182,167.682,182,167.682A28.868,28.868,0,0,1,160.96,138.8C160.96,114.9,167.854,106.8,175.35,92.71Z" transform="translate(68.838 38.235)" fill="#0d1019"/>
    <path id="Path_112" data-name="Path 112" d="M171,114.891c.99-6.382,4.791-11.385,10.607-12.781s12.993,3.8,17.377,8.591c0,0-3.942,3.536-13.983,5.3C174.536,118.091,171,114.891,171,114.891Z" transform="translate(86.711 52.117)" fill="#fafafa"/>
    <path id="Path_113" data-name="Path 113" d="M173.461,114.383s.8-7.8-3.2-11.986-10.041-2.457-13.311.972C157.038,103.37,159.867,112.792,173.461,114.383Z" transform="translate(75.923 50.628)" fill="#fafafa"/>
    <path id="Path_114" data-name="Path 114" d="M166.916,112.319c4.667.937,7.743.23,7.867,2.616a6.063,6.063,0,0,1-4.773,5.409,4.773,4.773,0,0,1-5.074-3.818C163.911,112.284,164.423,111.948,166.916,112.319Z" transform="translate(81.673 60.046)" fill="#6e00c1"/>
    <path id="Path_115" data-name="Path 115" d="M173.287,114.459a.778.778,0,0,1,0-1.538c4.19-.212,8.415,0,8.468,0a.778.778,0,0,1,.742.813.76.76,0,0,1-.813.725s-4.207-.194-8.326,0Z" transform="translate(87.959 60.522)" fill="#fafafa"/>
    <path id="Path_116" data-name="Path 116" d="M184.754,119.993a.672.672,0,0,1-.3,0,42.55,42.55,0,0,0-10.377-2.935.778.778,0,0,1,.177-1.538,41.86,41.86,0,0,1,10.819,3.058.8.8,0,0,1,.407,1.025A.813.813,0,0,1,184.754,119.993Z" transform="translate(88.602 62.59)" fill="#fafafa"/>
    <path id="Path_117" data-name="Path 117" d="M180.226,122.887a.566.566,0,0,1-.248,0,35.233,35.233,0,0,1-7.071-3.677.778.778,0,1,1,.849-1.29,35.783,35.783,0,0,0,6.718,3.536.76.76,0,0,1,.477.972.778.778,0,0,1-.725.46Z" transform="translate(87.844 64.292)" fill="#fafafa"/>
    <path id="Path_118" data-name="Path 118" d="M165.023,114.188a.8.8,0,0,1-.336,0l-4.4-2.174a.771.771,0,0,1,.689-1.379l4.4,2.174a.778.778,0,0,1-.354,1.467Z" transform="translate(78.156 58.778)" fill="#fafafa"/>
    <path id="Path_119" data-name="Path 119" d="M167.616,116.312h0L157.31,115.6a.778.778,0,1,1,.106-1.538l10.306.707a.742.742,0,0,1,.725.813.778.778,0,0,1-.831.725Z" transform="translate(75.563 61.462)" fill="#fafafa"/>
    <path id="Path_120" data-name="Path 120" d="M160.635,120.724a.778.778,0,0,1-.318-1.485l4.384-2a.779.779,0,1,1,.654,1.414l-4.4,2A.689.689,0,0,1,160.635,120.724Z" transform="translate(78.16 63.856)" fill="#fafafa"/>
    <path id="Path_121" data-name="Path 121" d="M175.421,129.966a.778.778,0,0,0-.778.778,1.98,1.98,0,0,1-1.131,1.538,1.874,1.874,0,0,1-1.927.141c-.725-.424-1.1-1.538-1.078-3.164v-13.4a.725.725,0,0,0-.778-.778.76.76,0,0,0-.76.778c0,.106,0,10.112,0,13.382v.619h0s-.3,2.21-2.033,2.333a1.2,1.2,0,0,1-.937-.3,3.217,3.217,0,0,1-.742-1.962.813.813,0,0,0-.8-.742.778.778,0,0,0-.76.8,4.773,4.773,0,0,0,1.255,3.058,2.687,2.687,0,0,0,1.856.689h.212a3.323,3.323,0,0,0,2.528-1.379,3.305,3.305,0,0,0,1.237,1.379,3.2,3.2,0,0,0,1.556.407,3.907,3.907,0,0,0,1.927-.53,3.535,3.535,0,0,0,1.909-2.9.778.778,0,0,0-.76-.742Z" transform="translate(81.106 62.251)" fill="#6e00c1"/>
    <ellipse id="Ellipse_42" data-name="Ellipse 42" cx="6.417" cy="7.442" rx="6.417" ry="7.442" transform="translate(262.767 153.998)" fill="#0d1019"/>
    <ellipse id="Ellipse_43" data-name="Ellipse 43" cx="5.498" cy="6.364" rx="5.498" ry="6.364" transform="translate(237.045 150.568)" fill="#0d1019"/>
    <circle id="Ellipse_44" data-name="Ellipse 44" cx="1.397" cy="1.397" r="1.397" transform="translate(243.533 154.121)" fill="#fafafa"/>
    <circle id="Ellipse_45" data-name="Ellipse 45" cx="1.397" cy="1.397" r="1.397" transform="translate(263.969 157.781)" fill="#fafafa"/>
    <path id="Path_122" data-name="Path 122" d="M188.879,54.347V74.659H168.567a20.33,20.33,0,1,1,20.312-20.312Z" transform="translate(69.221 0)" fill="#e2eaf2"/>
    <path id="Path_123" data-name="Path 123" d="M165.2,38.14a13.029,13.029,0,1,0,13.011,13.029A13.029,13.029,0,0,0,165.2,38.14Zm11.137,16.122a26.782,26.782,0,0,0-7.071-8.839,12.371,12.371,0,0,0,.424-1.644,16.617,16.617,0,0,1,6.947,5.339,12.8,12.8,0,0,1,.194,2.051,11.277,11.277,0,0,1-.495,3.094Zm-15.344-3.748a3.7,3.7,0,0,1,1.538-2.351,6.2,6.2,0,0,1,4.225-.548,20.239,20.239,0,0,1-1.927,2.864A18.651,18.651,0,0,1,160.989,50.515Zm-7.372.654v-1.22a18.669,18.669,0,0,0,2.828,1.149,7.071,7.071,0,0,1-2.669,2.245,11.064,11.064,0,0,1-.124-2.174Zm13.806-4.9a7.884,7.884,0,0,0-5.692.672,5.3,5.3,0,0,0-2.174,3.323,18.315,18.315,0,0,1-2.616-.636,7.9,7.9,0,0,1,2.811-4.49,11.526,11.526,0,0,1,8.574-1.768,13.223,13.223,0,0,1-.9,2.9Zm-9.475,5.3a24.255,24.255,0,0,0,2.775.46,15.468,15.468,0,0,1-5.834,4.579,12.375,12.375,0,0,1-.76-1.768,8.5,8.5,0,0,0,3.818-3.341Zm9.033,3.695a17.359,17.359,0,0,1-6.824,6.364,10.376,10.376,0,0,1-1.768-1.008,20.383,20.383,0,0,0,7.336-7.248,11.456,11.456,0,0,1,1.255,1.821Zm.831,1.379c.3.513.6,1.061.919,1.626a7.46,7.46,0,0,1-4.791,4.366,10.323,10.323,0,0,1-1.98-.389,19.446,19.446,0,0,0,5.834-5.675Zm1.768,3.217c.283.566.548,1.131.8,1.768a12.375,12.375,0,0,1-3.005,1.025,10.43,10.43,0,0,0,2.192-2.864Zm-3.536-8.591c.247-.3.566-.725.937-1.273a29.61,29.61,0,0,1,6.152,9.581,11.016,11.016,0,0,1-1.573,1.273,63.52,63.52,0,0,0-5.533-9.652Zm1.768-2.528a18.152,18.152,0,0,0,.937-1.856A22.628,22.628,0,0,1,175.52,56.4a11.683,11.683,0,0,1-1.237,1.945,32.332,32.332,0,0,0-6.488-9.67Zm7.566-2.97a15.61,15.61,0,0,0-5.462-3.536,10.428,10.428,0,0,0,0-1.662,11.6,11.6,0,0,1,5.48,5.127ZM165.2,39.66a11.667,11.667,0,0,1,3.147.442,8.082,8.082,0,0,1,.141,1.945,12.958,12.958,0,0,0-9.652,2.1,9.281,9.281,0,0,0-3.253,5.127,16.653,16.653,0,0,1-1.644-.742A11.6,11.6,0,0,1,165.2,39.66Zm-9.475,18.208a18.014,18.014,0,0,0,6.771-5.834h.088a19.269,19.269,0,0,0,2.21-.141h0c-.778,1.326-3.659,5.869-7.672,7.531a10.607,10.607,0,0,1-1.4-1.626Z" transform="translate(72.238 3.179)" fill="#6e00c1"/>
    <path id="Path_124" data-name="Path 124" d="M174.723,55.535a1.767,1.767,0,0,1-.6,0c-1.149-.371-1.768-1.768-1.768-3.748,0-1.273-.318-1.768-.477-1.768s-1.078.495-1.768,2.086c-.919,2.1-2.21,2.051-2.722,1.945-1.4-.336-2.369-2.3-2.263-4.561a.742.742,0,0,1,.76-.672.725.725,0,0,1,.689.76c0,1.768.6,2.935,1.149,3.058s.725-.354,1.061-1.114c.9-2.051,2.192-3.164,3.394-2.917.6.124,1.626.707,1.626,3.2,0,1.556.442,2.245.813,2.369s1.061-.212,1.768-1.22a2.581,2.581,0,0,1,2.21-1.29,3.96,3.96,0,0,1,2.758,1.892.725.725,0,0,1-1.22.778c-.212-.318-.919-1.22-1.591-1.237a1.467,1.467,0,0,0-.99.689A3.7,3.7,0,0,1,174.723,55.535Z" transform="translate(82.193 11.187)" fill="#6e00c1"/>
    <path id="Path_125" data-name="Path 125" d="M122.86,54.51h38.485a1.98,1.98,0,0,1,1.98,1.98V81.716a2,2,0,0,1-1.909,1.945h-3.041l1.768,7.725-7.973-7.725H122.86a2,2,0,0,1-1.98-2V56.49a1.98,1.98,0,0,1,1.98-1.98Z" transform="translate(48.229 15.747)" fill="#6e00c1"/>
    <circle id="Ellipse_46" data-name="Ellipse 46" cx="9.829" cy="9.829" r="9.829" transform="translate(180.794 75.349)" fill="#fafafa"/>
    <path id="Path_126" data-name="Path 126" d="M143.142,66.511a7.442,7.442,0,0,1-14.142,0,8.927,8.927,0,0,1,14.142,0Z" transform="translate(54.464 22.291)" fill="#6e00c1"/>
    <path id="Path_127" data-name="Path 127" d="M137.421,60.922c.124-.495.513-2.21,0-2.51s-1.255.389-1.768.831a3.182,3.182,0,0,0-1.167-.23,3.377,3.377,0,0,0-1.2.23c-.566-.442-1.45-1.061-1.768-.831s-.088,2.121,0,2.563a3.27,3.27,0,1,0,5.957,0Z" transform="translate(56.172 18.687)" fill="#6e00c1"/>
    <path id="Path_128" data-name="Path 128" d="M200.081,185.595H77.4L58.11,96.852a2,2,0,0,1,1.945-2.422H178.16a2.634,2.634,0,0,1,2.546,2.051Z" transform="translate(0 46.397)" fill="#6e00c1"/>
    <path id="Path_129" data-name="Path 129" d="M78.42,148.042h147.2v-3.058a1.662,1.662,0,0,0-1.662-1.644H78.42Z" transform="translate(15.629 83.95)" fill="#6e00c1"/>
    <path id="Path_130" data-name="Path 130" d="M124.515,120.506l-8.591,3.164a.318.318,0,0,0-.106.566l3.023,2.227a16.776,16.776,0,0,1-6.417,3.447c-7.761,2.192-13.824-.689-18.915-8.945l-.46,6.629-7.248-1.5s7.425,10.306,19.8,9.953a19.941,19.941,0,0,0,15.168-8.167l3.129,2.316a.318.318,0,0,0,.495-.283l.513-9.139a.3.3,0,0,0-.389-.265Z" transform="translate(21.295 66.408)" fill="#fafafa"/>
    <path id="Path_131" data-name="Path 131" d="M92.269,122.981l-3.023-2.227a16.264,16.264,0,0,1,6.417-3.43c7.761-2.21,13.824.672,18.9,8.839l.46-6.629,7.266,1.5s-7.407-10.306-19.782-9.953a20.011,20.011,0,0,0-15.185,8.167l-3.111-2.316a.318.318,0,0,0-.495.283l-.513,9.139a.3.3,0,0,0,.371.265l8.574-3.164a.318.318,0,0,0,.124-.477Z" transform="translate(19.299 59.177)" fill="#fafafa"/>
    <path id="Path_132" data-name="Path 132" d="M143.84,104.883V85.827a2.793,2.793,0,0,0-1.379-2.4l-16.493-9.511a2.74,2.74,0,0,0-2.758,0L106.7,83.422a2.793,2.793,0,0,0-1.379,2.4v19.057a2.793,2.793,0,0,0,1.379,2.4l16.493,9.493a2.74,2.74,0,0,0,2.775,0l16.511-9.511a2.793,2.793,0,0,0,1.361-2.387Z" transform="translate(36.282 30.358)" fill="#0d1019"/>
    <path id="Path_133" data-name="Path 133" d="M113.635,95.752h24.908a4.7,4.7,0,0,0-3.8-7.478h-.159a5.462,5.462,0,0,0-9.617-4.526,6.364,6.364,0,1,0-12.074,3.536,4.507,4.507,0,0,0-1.485-.247,4.7,4.7,0,0,0-2.316,8.839Z" transform="translate(37.284 33.956)" fill="#e2eaf2"/>
    <path id="Path_134" data-name="Path 134" d="M123.793,93.1h-2.457V86.2a1.237,1.237,0,0,0-.849-1.2h-4.013a1.255,1.255,0,0,0-1.008,1.2V93.1H113.24a.76.76,0,0,0-.548,1.308l5.2,5.18a.849.849,0,0,0,1.2,0l5.18-5.18a.76.76,0,0,0-.477-1.308Z" transform="translate(41.763 39.157)" fill="#6e00c1"/>
  </g>
</svg>
