<svg xmlns="http://www.w3.org/2000/svg" width="30.399" height="30.536" viewBox="0 0 30.399 30.536">
  <path id="whatsapp" d="M25.958,4.439A14.989,14.989,0,0,0,15.257,0,15.143,15.143,0,0,0,2.139,22.694L0,30.536l8.023-2.1a15.14,15.14,0,0,0,7.233,1.842h.008A15.127,15.127,0,0,0,25.956,4.439Zm-10.7,23.274a12.545,12.545,0,0,1-6.4-1.756l-.458-.275-4.76,1.248L4.9,22.288l-.3-.479a12.572,12.572,0,1,1,10.649,5.9Zm6.9-9.417c-.376-.189-2.233-1.1-2.582-1.233s-.6-.189-.849.189-.979,1.233-1.2,1.479-.443.282-.821.1a10.324,10.324,0,0,1-3.038-1.88,11.538,11.538,0,0,1-2.105-2.618c-.218-.378-.021-.58.168-.769.166-.168.376-.443.565-.66a2.413,2.413,0,0,0,.378-.63.7.7,0,0,0-.029-.662c-.1-.189-.849-2.054-1.168-2.806s-.616-.639-.849-.649c-.218-.013-.471-.013-.725-.013a1.391,1.391,0,0,0-1.01.471,4.237,4.237,0,0,0-1.319,3.157,7.325,7.325,0,0,0,1.546,3.911,16.81,16.81,0,0,0,6.456,5.71,21.034,21.034,0,0,0,2.155.8,5.194,5.194,0,0,0,2.378.153,3.917,3.917,0,0,0,2.554-1.8,3.165,3.165,0,0,0,.218-1.8C22.788,18.579,22.534,18.486,22.156,18.3Z" fill="#fff"/>
</svg>
