<svg xmlns="http://www.w3.org/2000/svg" width="30.534" height="21.449" viewBox="0 0 30.534 21.449">
  <path id="youtube" d="M15.365,2h.17C17.1,2,25.053,2.062,27.2,2.638a3.836,3.836,0,0,1,2.7,2.71,17.281,17.281,0,0,1,.42,2.676l.019.2.042.5.015.2c.124,1.744.139,3.378.141,3.735V12.8c0,.37-.019,2.115-.156,3.932l-.015.2-.017.2A18.9,18.9,0,0,1,29.9,20.1a3.83,3.83,0,0,1-2.7,2.71c-2.214.6-10.628.637-11.795.639h-.271c-.59,0-3.029-.011-5.586-.1l-.324-.011-.166-.008-.326-.013L8.4,23.3a30.68,30.68,0,0,1-5.065-.5A3.83,3.83,0,0,1,.636,20.1a18.87,18.87,0,0,1-.448-2.973l-.015-.2-.015-.2Q.015,14.787,0,12.841v-.235c0-.41.019-1.828.122-3.393l.013-.2.006-.1.015-.2.042-.5.019-.2a17.245,17.245,0,0,1,.42-2.676,3.83,3.83,0,0,1,2.7-2.71,31.329,31.329,0,0,1,5.065-.5l.324-.013.328-.011.164-.006L9.546,2.1Q12.271,2.011,15,2h.368ZM12.214,8.125v9.2l7.934-4.6Z" transform="translate(0 -1.999)" fill="#fff"/>
</svg>
