<svg xmlns="http://www.w3.org/2000/svg" width="420" height="483.111" viewBox="0 0 420 483.111">
  <g id="Group_106" data-name="Group 106" transform="translate(-255 -8736.889)">
    <text id="DAFTAR_SEKARANG_HANYA" data-name="DAFTAR SEKARANG HANYA" transform="translate(457 9122)" font-size="24" font-family="SegoeUI-BoldItalic, Segoe UI" font-weight="700" font-style="italic"><tspan x="-159.674" y="0">DAFTAR SEKARANG HANYA</tspan></text>
    <text id="Rp._375.000_-" data-name="Rp. 375.000,-" transform="translate(465 9201)" fill="#6e00c1" font-size="44.914" font-family="SegoeUI-BoldItalic, Segoe UI" font-weight="700" font-style="italic"><tspan x="-209.456" y="0" baseline-shift="25.664100369682814">Rp. </tspan><tspan y="0" font-size="77">375.000,-</tspan></text>
    <g id="New_ideas-60b6" data-name="New ideas-60b6" transform="translate(222.732 8712.297)">
      <path id="Path_328" data-name="Path 328" d="M84.09,179.074c-4.959,0-8.387-1.165-9.781-3.771-1.805-3.359-1.874-9.8,18.282-26.9a2.285,2.285,0,0,1,2.925,3.474c-19.242,16.225-17.6,20.819-17.345,21.276,3.908,7.244,57.634-8.615,136.292-50.915S335.993,43.833,332.085,36.589c-1.074-2.011-9.461-3.222-34.1,4.845a2.285,2.285,0,0,1-1.417-4.319c34.8-11.426,38.346-4.845,39.512-2.674,8.41,15.654-66.821,63.461-119.473,91.776C172.826,149.823,109,179.074,84.09,179.074Z" transform="translate(32.188 7.697)" fill="#e2eaf2"/>
      <circle id="Ellipse_105" data-name="Ellipse 105" cx="6.216" cy="6.216" r="6.216" transform="translate(323.367 40.744)" fill="#e2eaf2"/>
      <path id="Path_329" data-name="Path 329" d="M418.73,158.051H50.805a2.285,2.285,0,1,1,0-4.57H418.73a2.285,2.285,0,1,1,0,4.57Z" transform="translate(0 165.653)" fill="#e2eaf2"/>
      <path id="Path_330" data-name="Path 330" d="M149.15,172.207s1.165-8.8,14.054-8.8c0,0-4.685-7.907,5.85-13.711a18.282,18.282,0,0,1,18.762,0s3.5-10.878,17.551-8.73,11.723,11.175,11.723,11.175a16.682,16.682,0,0,1,18.762-2.445c10.512,5.462,4.982,11.426,4.982,11.426a11.243,11.243,0,0,1,10.809,10.946Z" transform="translate(129.334 149.211)" fill="#e2eaf2"/>
      <rect id="Rectangle_90" data-name="Rectangle 90" width="105.121" height="129.436" rx="23" transform="translate(181.864 114.443)" fill="#eaa88e"/>
      <path id="Path_331" data-name="Path 331" d="M151,97.76s.526-11.7,12.683-9.6,9.141,27.766-8.638,26.029Z" transform="translate(131.712 81.379)" fill="#eaa88e"/>
      <path id="Path_332" data-name="Path 332" d="M121.5,97.78s-.571-11.7-12.683-9.644-9.141,27.766,8.638,26.029Z" transform="translate(68.093 81.359)" fill="#eaa88e"/>
      <path id="Path_333" data-name="Path 333" d="M127.56,107.34h11.289a5.759,5.759,0,0,0-5.645-4.159C127.514,103.2,127.56,107.34,127.56,107.34Z" transform="translate(101.586 101.005)" fill="#d78a69"/>
      <path id="Path_334" data-name="Path 334" d="M250.124,201.633H97.012c-1.074-26.1,4.753-34.667,12.135-41.134s26.349-10.489,34.8-10.489,9.507-2.1,12.158-10.032,2.628-23.767,2.628-23.767h29.708s0,15.837,2.628,23.767,3.725,10.032,12.158,10.032,27.423,4.228,34.873,10.558S251.2,175.535,250.124,201.633Z" transform="translate(62.16 117.752)" fill="#eaa88e"/>
      <path id="Path_335" data-name="Path 335" d="M212.281,134.942a430.154,430.154,0,0,0-2.445,47.373H109.057c.137-13.483,0-33.228-2.057-46.733a87.18,87.18,0,0,1,13.711-3.7V156.1h0a104.55,104.55,0,0,0,72.739.5l2.879-1.051V131.24a92.533,92.533,0,0,1,15.951,3.7Z" transform="translate(75.161 137.069)" fill="#e2eaf2"/>
      <circle id="Ellipse_106" data-name="Ellipse 106" cx="19.013" cy="19.013" r="19.013" transform="translate(191.097 166.113)" fill="#0d1019"/>
      <circle id="Ellipse_107" data-name="Ellipse 107" cx="19.013" cy="19.013" r="19.013" transform="translate(239.361 166.113)" fill="#0d1019"/>
      <path id="Path_336" data-name="Path 336" d="M135.4,93.36a11.221,11.221,0,0,0-9.644,5.439,2.422,2.422,0,0,0,2.08,3.679h0a2.468,2.468,0,0,0,2.1-1.211,6.376,6.376,0,0,1,10.9,0,2.491,2.491,0,0,0,2.1,1.211h0a2.445,2.445,0,0,0,2.1-3.679A11.22,11.22,0,0,0,135.4,93.36Z" transform="translate(98.818 88.384)" fill="#0d1019"/>
      <circle id="Ellipse_108" data-name="Ellipse 108" cx="3.359" cy="3.359" r="3.359" transform="translate(200.1 181.767)" fill="#6e00c1"/>
      <circle id="Ellipse_109" data-name="Ellipse 109" cx="1.234" cy="1.234" r="1.234" transform="translate(198.866 175.3)" fill="#e2eaf2"/>
      <circle id="Ellipse_110" data-name="Ellipse 110" cx="1.234" cy="1.234" r="1.234" transform="translate(193.907 182.475)" fill="#e2eaf2"/>
      <circle id="Ellipse_111" data-name="Ellipse 111" cx="1.234" cy="1.234" r="1.234" transform="translate(216.234 174.066)" fill="#e2eaf2"/>
      <circle id="Ellipse_112" data-name="Ellipse 112" cx="1.234" cy="1.234" r="1.234" transform="translate(266.487 183.892)" fill="#e2eaf2"/>
      <circle id="Ellipse_113" data-name="Ellipse 113" cx="1.234" cy="1.234" r="1.234" transform="translate(266.487 193.01)" fill="#e2eaf2"/>
      <circle id="Ellipse_114" data-name="Ellipse 114" cx="3.245" cy="3.245" r="3.245" transform="translate(247.771 174.294)" fill="#e2eaf2"/>
      <circle id="Ellipse_115" data-name="Ellipse 115" cx="0.617" cy="0.617" r="0.617" transform="translate(215.023 182.475)" fill="#e2eaf2"/>
      <circle id="Ellipse_116" data-name="Ellipse 116" cx="0.617" cy="0.617" r="0.617" transform="translate(202.66 194.838)" fill="#e2eaf2"/>
      <circle id="Ellipse_117" data-name="Ellipse 117" cx="0.617" cy="0.617" r="0.617" transform="translate(212.258 169.061)" fill="#e2eaf2"/>
      <circle id="Ellipse_118" data-name="Ellipse 118" cx="0.617" cy="0.617" r="0.617" transform="translate(272.109 181.538)" fill="#e2eaf2"/>
      <circle id="Ellipse_119" data-name="Ellipse 119" cx="0.617" cy="0.617" r="0.617" transform="translate(247.154 190.862)" fill="#e2eaf2"/>
      <circle id="Ellipse_120" data-name="Ellipse 120" cx="0.617" cy="0.617" r="0.617" transform="translate(260.522 199.98)" fill="#e2eaf2"/>
      <circle id="Ellipse_121" data-name="Ellipse 121" cx="0.617" cy="0.617" r="0.617" transform="translate(267.104 171.529)" fill="#e2eaf2"/>
      <circle id="Ellipse_122" data-name="Ellipse 122" cx="1.234" cy="1.234" r="1.234" transform="translate(255.495 169.678)" fill="#e2eaf2"/>
      <circle id="Ellipse_123" data-name="Ellipse 123" cx="2.217" cy="2.217" r="2.217" transform="translate(249.896 184.692)" fill="#e2eaf2"/>
      <circle id="Ellipse_124" data-name="Ellipse 124" cx="1.051" cy="1.051" r="1.051" transform="translate(219.525 194.244)" fill="#e2eaf2"/>
      <path id="Path_337" data-name="Path 337" d="M132.142,99.5a5.987,5.987,0,0,1-2.057.366,6.33,6.33,0,0,1-4-11.243A18.922,18.922,0,0,1,132.142,99.5Z" transform="translate(96.685 82.292)" fill="#6e00c1"/>
      <path id="Path_338" data-name="Path 338" d="M125.7,98.385h0a.48.48,0,0,1-.3.434,3.451,3.451,0,0,0-2.034,2.034.48.48,0,0,1-.434.3h0a.48.48,0,0,1-.434-.3,3.451,3.451,0,0,0-2.034-2.034.48.48,0,0,1-.3-.434h0a.48.48,0,0,1,.3-.434,3.451,3.451,0,0,0,2.034-2.034.48.48,0,0,1,.434-.3h0a.48.48,0,0,1,.434.3,3.451,3.451,0,0,0,2.034,2.034.48.48,0,0,1,.3.434Z" transform="translate(92.088 91.289)" fill="#e2eaf2"/>
      <path id="Path_339" data-name="Path 339" d="M143.719,100.038h0a.343.343,0,0,1-.229.32,2.834,2.834,0,0,0-1.6,1.6.343.343,0,0,1-.32.229h0a.343.343,0,0,1-.343-.229,2.788,2.788,0,0,0-1.577-1.6.366.366,0,0,1-.251-.32h0a.388.388,0,0,1,.251-.343,2.7,2.7,0,0,0,1.577-1.577.343.343,0,0,1,.343-.229h0a.343.343,0,0,1,.32.229,2.719,2.719,0,0,0,1.6,1.577.366.366,0,0,1,.229.343Z" transform="translate(116.803 94.206)" fill="#6e00c1"/>
      <path id="Path_340" data-name="Path 340" d="M137.04,100.367l18.145-9.827L139.9,103.726Z" transform="translate(113.77 84.76)" fill="#e2eaf2"/>
      <path id="Path_341" data-name="Path 341" d="M63.61,176.213A12.226,12.226,0,0,1,76.293,165.4a14.077,14.077,0,0,1,5.279-16.751,12.957,12.957,0,0,1,16.911,0s3.176-13.369,15.86-10.741S124.9,151.624,124.9,151.624s7.45-9.712,16.934-2.994,4.57,14.1,4.57,14.1,8.707,0,9.758,13.46Z" transform="translate(19.394 145.205)" fill="#e2eaf2"/>
      <path id="Path_342" data-name="Path 342" d="M68.226,151.458a2.08,2.08,0,0,1-1.851-1.165c-.48-1.028-11.678-25.138-2.9-45.7a2.057,2.057,0,0,1,2.582-1.12c21.116,7.45,31.216,31.993,31.651,33a2.057,2.057,0,0,1-1.074,2.651L68.98,151.276a2.057,2.057,0,0,1-.754.183Zm-1.691-43.42c-5.553,15.4.5,33,2.765,38.621l23.789-10.466c-2.628-5.416-11.495-21.778-26.555-28.109Z" transform="translate(14.916 101.22)" fill="#e2eaf2"/>
      <path id="Path_343" data-name="Path 343" d="M70.351,124.524A7.931,7.931,0,0,1,67.563,124a7.664,7.664,0,1,1,9.827-10.215h0a7.686,7.686,0,0,1-7.039,10.741Zm0-11.221a3.611,3.611,0,0,0-1.44.3,3.572,3.572,0,0,0,2.879,6.536,3.565,3.565,0,0,0,1.9-1.965,3.519,3.519,0,0,0,0-2.719h0a3.542,3.542,0,0,0-3.336-2.148Z" transform="translate(18.252 108.752)" fill="#e2eaf2"/>
      <path id="Path_344" data-name="Path 344" d="M78.8,123.157a2.057,2.057,0,0,1-1.531-3.428l5.325-5.873a10.352,10.352,0,0,0-10.261-.663,2.057,2.057,0,1,1-2.011-3.565,14.648,14.648,0,0,1,16.637,2.285,2.011,2.011,0,0,1,.686,1.417,2.08,2.08,0,0,1-.48,1.508l-6.856,7.541a1.988,1.988,0,0,1-1.508.777Z" transform="translate(26.44 107.217)" fill="#e2eaf2"/>
      <path id="Path_345" data-name="Path 345" d="M68.528,128.769H58.382a2.034,2.034,0,0,1-2.011-2.08A14.648,14.648,0,0,1,65.854,112.8a2.057,2.057,0,0,1,1.257,3.908,10.352,10.352,0,0,0-6.467,8h7.93a2.08,2.08,0,0,1,2.034,2.08,2.057,2.057,0,0,1-2.08,1.988Z" transform="translate(10.089 113.282)" fill="#e2eaf2"/>
      <path id="Path_346" data-name="Path 346" d="M102.209,177.574a2.034,2.034,0,0,1-1.805-1.1l-28.566-54.8a2.044,2.044,0,1,1,3.634-1.874l28.543,54.709a2.057,2.057,0,0,1-.868,2.765,1.966,1.966,0,0,1-.937.3Z" transform="translate(29.677 120.946)" fill="#e2eaf2"/>
      <path id="Path_347" data-name="Path 347" d="M94.418,181.694a2.057,2.057,0,0,1-1.9-1.28L69.006,122.872a2.057,2.057,0,1,1,3.794-1.554L96.223,178.86a2.08,2.08,0,0,1-1.143,2.674A2.287,2.287,0,0,1,94.418,181.694Z" transform="translate(26.042 122.471)" fill="#e2eaf2"/>
      <path id="Path_348" data-name="Path 348" d="M88.229,180.079a2.034,2.034,0,0,1-1.92-1.348L66.153,123.884a2.034,2.034,0,0,1,1.211-2.628,2.08,2.08,0,0,1,2.628,1.211l20.156,54.846a2.08,2.08,0,0,1-1.92,2.765Z" transform="translate(22.496 124.086)" fill="#e2eaf2"/>
      <path id="Path_349" data-name="Path 349" d="M86.448,125.112a14.775,14.775,0,0,1-2.514-.137h-.388a2.042,2.042,0,0,1,.366-4.068H84.3a14.466,14.466,0,0,0,13.026-5.37,17.117,17.117,0,0,1,7.358-5.53,17.62,17.62,0,0,1,5.1-1.348,2.057,2.057,0,0,1,2.285,1.828,2.08,2.08,0,0,1-1.851,2.285,13.414,13.414,0,0,0-3.931,1.074,13.232,13.232,0,0,0-5.782,4.365,17.208,17.208,0,0,1-7.336,5.53,17.026,17.026,0,0,1-6.719,1.371Z" transform="translate(42.627 108.028)" fill="#e2eaf2"/>
      <path id="Path_350" data-name="Path 350" d="M88.471,130.019a14.772,14.772,0,0,1-2.514-.137h-.388a2.057,2.057,0,0,1-1.851-2.285A2.034,2.034,0,0,1,86,125.723h.389a14.4,14.4,0,0,0,13.026-5.393,17.116,17.116,0,0,1,7.358-5.507,17.711,17.711,0,0,1,5.1-1.371,2.057,2.057,0,0,1,.388,4.091,13.346,13.346,0,0,0-3.908,1.051,13.071,13.071,0,0,0-5.8,4.388,17.025,17.025,0,0,1-7.336,5.507,16.638,16.638,0,0,1-6.742,1.531Z" transform="translate(45.22 114.203)" fill="#e2eaf2"/>
      <path id="Path_351" data-name="Path 351" d="M90.564,134.778a12.806,12.806,0,0,1-2.514-.16h-.366a2.057,2.057,0,1,1,.343-4.091h.388a14.489,14.489,0,0,0,13.049-5.393,17.048,17.048,0,0,1,7.336-5.37,17.619,17.619,0,0,1,5.1-1.348,2.043,2.043,0,1,1,.388,4.068,13.712,13.712,0,0,0-3.908,1.051,13.369,13.369,0,0,0-5.8,4.388A18.83,18.83,0,0,1,90.564,134.778Z" transform="translate(47.744 120.574)" fill="#e2eaf2"/>
      <circle id="Ellipse_125" data-name="Ellipse 125" cx="7.656" cy="7.656" r="7.656" transform="translate(322.087 219.999)" fill="#e2eaf2"/>
      <path id="Path_352" data-name="Path 352" d="M177.252,172.511h-.777c-4.57-.48-8.09-5.1-10.1-12.98a85.217,85.217,0,0,1,5.576-51.875c3.656-7.267,8.158-10.992,12.637-10.535s8.09,5.1,10.124,13a77.057,77.057,0,0,1,1.257,26.349,76.807,76.807,0,0,1-6.856,25.5C185.662,168.787,181.5,172.511,177.252,172.511Zm6.536-71.368c-2.537,0-5.576,3.062-8.227,8.318a72.076,72.076,0,0,0-6.376,24,72.739,72.739,0,0,0,1.143,24.909c1.531,5.942,4,9.667,6.582,9.941s5.782-2.834,8.547-8.3A72.763,72.763,0,0,0,191.9,135.9h0a73.334,73.334,0,0,0-1.165-24.909c-1.531-5.942-4-9.644-6.582-9.941Z" transform="translate(149.2 93.17)" fill="#e2eaf2"/>
      <path id="Path_353" data-name="Path 353" d="M167.4,157.51a9,9,0,0,1-6.993-2.719c-3.039-3.336-2.628-9.141,1.1-16.408A85.445,85.445,0,0,1,200.192,103.4c7.587-2.994,13.437-2.788,16.454.548,6.856,7.5-4.068,24.612-17.711,36.952h0C188.72,150.106,175.991,157.51,167.4,157.51Zm42.254-52.149a22.6,22.6,0,0,0-7.953,1.851,81.423,81.423,0,0,0-36.564,33.045c-2.811,5.439-3.451,9.872-1.691,11.792,3.634,4.022,17.962-.846,32.748-14.191s21.047-27.149,17.414-31.171A5.256,5.256,0,0,0,209.653,105.361ZM197.564,139.48Z" transform="translate(141.205 98.573)" fill="#e2eaf2"/>
      <path id="Path_354" data-name="Path 354" d="M208.363,159.13a25.138,25.138,0,0,1-10.055-2.605,76.991,76.991,0,0,1-21.321-15.563c-12.98-13-22.853-30.645-15.837-37.775s24.795,2.834,37.8,15.837a76.785,76.785,0,0,1,15.563,21.321c3.359,7.4,3.451,13.254.274,16.454a8.729,8.729,0,0,1-6.422,2.331ZM167.617,104.9a4.936,4.936,0,0,0-3.565,1.165c-3.816,3.839,1.737,17.916,15.837,31.993a72.945,72.945,0,0,0,20.133,14.74c5.576,2.537,10.009,2.948,11.86,1.1s1.44-6.284-1.12-11.86A72.351,72.351,0,0,0,196.045,121.9C184.848,110.706,173.673,104.9,167.617,104.9Z" transform="translate(141.764 97.958)" fill="#e2eaf2"/>
      <path id="Path_355" data-name="Path 355" d="M219.507,141.546s0,12.158-31.7,18.488-37.5-4.251-37.5-4.251-.754,6.033-5.279,6.262l-2.285,25.435L136,164.513s-28.543,3.451-31.171-22.852c0,0-37-16.911-19.036-66.044s80.3-64.97,113.074-34.279c0,0,5.8-21.8,42.254-15.654S276.57,59.118,276.57,59.118s29.708.686,35.4,46.848-43.922,66.752-60.788,60.4L245.4,191.3l-4.273-37.067S225.334,152.63,219.507,141.546Z" transform="translate(41.587 0)" fill="#0d1019"/>
      <circle id="Ellipse_126" data-name="Ellipse 126" cx="11.495" cy="11.495" r="11.495" transform="translate(263.996 79.319)" fill="#6e00c1"/>
      <path id="Path_356" data-name="Path 356" d="M145.79,66.454a29.709,29.709,0,0,0-4.136,7.427,2.285,2.285,0,0,0,0,1.485c0,.183.206.16.686.229a10.6,10.6,0,0,0,3.451-.868,51.374,51.374,0,0,0,7.427-3.908,85.035,85.035,0,0,0,7.061-4.776c2.285-1.645,4.57-3.428,6.719-5.279a70.846,70.846,0,0,0,6.17-5.827,27.544,27.544,0,0,0,2.559-3.2,8.18,8.18,0,0,0,.868-1.645,1.76,1.76,0,0,0,0-1.1c0-.229-.64-.48-1.28-.5a10.261,10.261,0,0,0-2.034,0,31.47,31.47,0,0,0-4.251.937,19.747,19.747,0,0,1,3.976-2.034,8.866,8.866,0,0,1,2.285-.571,3.474,3.474,0,0,1,2.788.686,3.359,3.359,0,0,1,.731,3.039,9.87,9.87,0,0,1-.8,2.285,23.654,23.654,0,0,1-2.445,3.931A63.233,63.233,0,0,1,162.632,69.15a54.594,54.594,0,0,1-16,8.387,11.426,11.426,0,0,1-5,.48,2.788,2.788,0,0,1-.754-.229c-.274-.16-.526-.183-.777-.457a2.628,2.628,0,0,1-1.006-1.6,4.571,4.571,0,0,1,.5-2.788,22.075,22.075,0,0,1,6.193-6.49Z" transform="translate(116.355 28.497)" fill="#eaa88e"/>
      <circle id="Ellipse_127" data-name="Ellipse 127" cx="6.741" cy="6.741" r="6.741" transform="translate(170.895 61.106)" fill="#6e00c1"/>
      <circle id="Ellipse_128" data-name="Ellipse 128" cx="3.359" cy="3.359" r="3.359" transform="translate(191.782 40.721)" fill="#e2eaf2"/>
      <circle id="Ellipse_129" data-name="Ellipse 129" cx="3.359" cy="3.359" r="3.359" transform="translate(161.137 98.949)" fill="#e2eaf2"/>
      <circle id="Ellipse_130" data-name="Ellipse 130" cx="3.359" cy="3.359" r="3.359" transform="translate(195.142 137.364)" fill="#e2eaf2"/>
      <circle id="Ellipse_131" data-name="Ellipse 131" cx="1.234" cy="1.234" r="1.234" transform="translate(195.142 89.031)" fill="#e2eaf2"/>
      <circle id="Ellipse_132" data-name="Ellipse 132" cx="1.234" cy="1.234" r="1.234" transform="translate(136.639 76.394)" fill="#e2eaf2"/>
      <circle id="Ellipse_133" data-name="Ellipse 133" cx="2.445" cy="2.445" r="2.445" transform="translate(254.284 56.215)" fill="#e2eaf2"/>
      <circle id="Ellipse_134" data-name="Ellipse 134" cx="1.234" cy="1.234" r="1.234" transform="translate(292.767 118.877)" fill="#e2eaf2"/>
      <circle id="Ellipse_135" data-name="Ellipse 135" cx="2.445" cy="2.445" r="2.445" transform="translate(309.975 128.132)" fill="#e2eaf2"/>
      <circle id="Ellipse_136" data-name="Ellipse 136" cx="1.234" cy="1.234" r="1.234" transform="translate(294.458 148.242)" fill="#e2eaf2"/>
      <path id="Path_357" data-name="Path 357" d="M177.436,54.03l2.011,5.622,5.393-2.559-2.559,5.393,5.622,1.988-5.622,2.011,2.559,5.393-5.393-2.559-2.011,5.622-1.988-5.622-5.416,2.559,2.582-5.393-5.645-2.011,5.645-1.988-2.582-5.393,5.416,2.559Z" transform="translate(152.238 37.835)" fill="#6e00c1"/>
      <path id="Path_358" data-name="Path 358" d="M132.405,52.083h0a.731.731,0,0,1-.48.663,5.553,5.553,0,0,0-3.2,3.222.754.754,0,0,1-.686.457h0a.708.708,0,0,1-.663-.457,5.553,5.553,0,0,0-3.108-3.154.708.708,0,0,1-.48-.663h0a.731.731,0,0,1,.48-.686,5.53,5.53,0,0,0,3.2-3.2.708.708,0,0,1,.663-.457h0a.754.754,0,0,1,.686.457,5.53,5.53,0,0,0,3.2,3.2A.777.777,0,0,1,132.405,52.083Z" transform="translate(96.741 29.841)" fill="#e2eaf2"/>
    </g>
  </g>
</svg>
